<mxfile host="65bd71144e">
    <diagram name="Página-1" id="cWyOJy4rAa10n7n6FvPp">
        <mxGraphModel dx="1671" dy="1871" grid="1" gridSize="10" guides="1" tooltips="1" connect="1" arrows="1" fold="1" page="1" pageScale="1" pageWidth="850" pageHeight="1100" math="0" shadow="0">
            <root>
                <mxCell id="0"/>
                <mxCell id="1" parent="0"/>
                <mxCell id="36T4z24LOP3LeD5Vtb74-15" value="Evento" style="shape=table;startSize=30;container=1;collapsible=1;childLayout=tableLayout;fixedRows=1;rowLines=0;fontStyle=1;align=center;resizeLast=1;html=1;fontSize=13;" parent="1" vertex="1">
                    <mxGeometry x="-200" y="545" width="250" height="325" as="geometry"/>
                </mxCell>
                <mxCell id="36T4z24LOP3LeD5Vtb74-16" value="" style="shape=tableRow;horizontal=0;startSize=0;swimlaneHead=0;swimlaneBody=0;fillColor=none;collapsible=0;dropTarget=0;points=[[0,0.5],[1,0.5]];portConstraint=eastwest;top=0;left=0;right=0;bottom=1;fontSize=13;" parent="36T4z24LOP3LeD5Vtb74-15" vertex="1">
                    <mxGeometry y="30" width="250" height="55" as="geometry"/>
                </mxCell>
                <mxCell id="36T4z24LOP3LeD5Vtb74-17" value="PK" style="shape=partialRectangle;connectable=0;fillColor=none;top=0;left=0;bottom=0;right=0;fontStyle=1;overflow=hidden;whiteSpace=wrap;html=1;fontSize=13;" parent="36T4z24LOP3LeD5Vtb74-16" vertex="1">
                    <mxGeometry width="30" height="55" as="geometry">
                        <mxRectangle width="30" height="55" as="alternateBounds"/>
                    </mxGeometry>
                </mxCell>
                <mxCell id="36T4z24LOP3LeD5Vtb74-18" value="IDEvento: int" style="shape=partialRectangle;connectable=0;fillColor=none;top=0;left=0;bottom=0;right=0;align=left;spacingLeft=6;fontStyle=5;overflow=hidden;whiteSpace=wrap;html=1;fontSize=13;" parent="36T4z24LOP3LeD5Vtb74-16" vertex="1">
                    <mxGeometry x="30" width="220" height="55" as="geometry">
                        <mxRectangle width="220" height="55" as="alternateBounds"/>
                    </mxGeometry>
                </mxCell>
                <mxCell id="vCqpdsKRJKgijNCNeV1A-1" value="" style="shape=tableRow;horizontal=0;startSize=0;swimlaneHead=0;swimlaneBody=0;fillColor=none;collapsible=0;dropTarget=0;points=[[0,0.5],[1,0.5]];portConstraint=eastwest;top=0;left=0;right=0;bottom=1;fontSize=13;" parent="36T4z24LOP3LeD5Vtb74-15" vertex="1">
                    <mxGeometry y="85" width="250" height="30" as="geometry"/>
                </mxCell>
                <mxCell id="vCqpdsKRJKgijNCNeV1A-2" value="FK" style="shape=partialRectangle;connectable=0;fillColor=none;top=0;left=0;bottom=0;right=0;editable=1;overflow=hidden;whiteSpace=wrap;html=1;fontStyle=1;fontSize=13;" parent="vCqpdsKRJKgijNCNeV1A-1" vertex="1">
                    <mxGeometry width="30" height="30" as="geometry">
                        <mxRectangle width="30" height="30" as="alternateBounds"/>
                    </mxGeometry>
                </mxCell>
                <mxCell id="vCqpdsKRJKgijNCNeV1A-3" value="NombreLocalidad:varchar[(50)]" style="shape=partialRectangle;connectable=0;fillColor=none;top=0;left=0;bottom=0;right=0;align=left;spacingLeft=6;overflow=hidden;whiteSpace=wrap;html=1;fontStyle=1;fontSize=13;" parent="vCqpdsKRJKgijNCNeV1A-1" vertex="1">
                    <mxGeometry x="30" width="220" height="30" as="geometry">
                        <mxRectangle width="220" height="30" as="alternateBounds"/>
                    </mxGeometry>
                </mxCell>
                <mxCell id="36T4z24LOP3LeD5Vtb74-19" value="" style="shape=tableRow;horizontal=0;startSize=0;swimlaneHead=0;swimlaneBody=0;fillColor=none;collapsible=0;dropTarget=0;points=[[0,0.5],[1,0.5]];portConstraint=eastwest;top=0;left=0;right=0;bottom=1;fontSize=13;" parent="36T4z24LOP3LeD5Vtb74-15" vertex="1">
                    <mxGeometry y="115" width="250" height="30" as="geometry"/>
                </mxCell>
                <mxCell id="36T4z24LOP3LeD5Vtb74-20" value="FK" style="shape=partialRectangle;connectable=0;fillColor=none;top=0;left=0;bottom=0;right=0;editable=1;overflow=hidden;whiteSpace=wrap;html=1;fontStyle=1;fontSize=13;" parent="36T4z24LOP3LeD5Vtb74-19" vertex="1">
                    <mxGeometry width="30" height="30" as="geometry">
                        <mxRectangle width="30" height="30" as="alternateBounds"/>
                    </mxGeometry>
                </mxCell>
                <mxCell id="36T4z24LOP3LeD5Vtb74-21" value="IDDisciplina: int" style="shape=partialRectangle;connectable=0;fillColor=none;top=0;left=0;bottom=0;right=0;align=left;spacingLeft=6;overflow=hidden;whiteSpace=wrap;html=1;fontStyle=1;fontSize=13;" parent="36T4z24LOP3LeD5Vtb74-19" vertex="1">
                    <mxGeometry x="30" width="220" height="30" as="geometry">
                        <mxRectangle width="220" height="30" as="alternateBounds"/>
                    </mxGeometry>
                </mxCell>
                <mxCell id="LZco95R0kcnfF2moG8rG-34" value="" style="shape=tableRow;horizontal=0;startSize=0;swimlaneHead=0;swimlaneBody=0;fillColor=none;collapsible=0;dropTarget=0;points=[[0,0.5],[1,0.5]];portConstraint=eastwest;top=0;left=0;right=0;bottom=0;fontSize=13;" parent="36T4z24LOP3LeD5Vtb74-15" vertex="1">
                    <mxGeometry y="145" width="250" height="30" as="geometry"/>
                </mxCell>
                <mxCell id="LZco95R0kcnfF2moG8rG-35" value="" style="shape=partialRectangle;connectable=0;fillColor=none;top=0;left=0;bottom=0;right=0;editable=1;overflow=hidden;whiteSpace=wrap;html=1;fontSize=13;" parent="LZco95R0kcnfF2moG8rG-34" vertex="1">
                    <mxGeometry width="30" height="30" as="geometry">
                        <mxRectangle width="30" height="30" as="alternateBounds"/>
                    </mxGeometry>
                </mxCell>
                <mxCell id="LZco95R0kcnfF2moG8rG-36" value="DuraciónMax: int" style="shape=partialRectangle;connectable=0;fillColor=none;top=0;left=0;bottom=0;right=0;align=left;spacingLeft=6;overflow=hidden;whiteSpace=wrap;html=1;fontSize=13;" parent="LZco95R0kcnfF2moG8rG-34" vertex="1">
                    <mxGeometry x="30" width="220" height="30" as="geometry">
                        <mxRectangle width="220" height="30" as="alternateBounds"/>
                    </mxGeometry>
                </mxCell>
                <mxCell id="36T4z24LOP3LeD5Vtb74-22" value="" style="shape=tableRow;horizontal=0;startSize=0;swimlaneHead=0;swimlaneBody=0;fillColor=none;collapsible=0;dropTarget=0;points=[[0,0.5],[1,0.5]];portConstraint=eastwest;top=0;left=0;right=0;bottom=0;fontSize=13;" parent="36T4z24LOP3LeD5Vtb74-15" vertex="1">
                    <mxGeometry y="175" width="250" height="30" as="geometry"/>
                </mxCell>
                <mxCell id="36T4z24LOP3LeD5Vtb74-23" value="" style="shape=partialRectangle;connectable=0;fillColor=none;top=0;left=0;bottom=0;right=0;editable=1;overflow=hidden;whiteSpace=wrap;html=1;fontSize=13;" parent="36T4z24LOP3LeD5Vtb74-22" vertex="1">
                    <mxGeometry width="30" height="30" as="geometry">
                        <mxRectangle width="30" height="30" as="alternateBounds"/>
                    </mxGeometry>
                </mxCell>
                <mxCell id="36T4z24LOP3LeD5Vtb74-24" value="Precio: int" style="shape=partialRectangle;connectable=0;fillColor=none;top=0;left=0;bottom=0;right=0;align=left;spacingLeft=6;overflow=hidden;whiteSpace=wrap;html=1;fontSize=13;" parent="36T4z24LOP3LeD5Vtb74-22" vertex="1">
                    <mxGeometry x="30" width="220" height="30" as="geometry">
                        <mxRectangle width="220" height="30" as="alternateBounds"/>
                    </mxGeometry>
                </mxCell>
                <mxCell id="36T4z24LOP3LeD5Vtb74-25" value="" style="shape=tableRow;horizontal=0;startSize=0;swimlaneHead=0;swimlaneBody=0;fillColor=none;collapsible=0;dropTarget=0;points=[[0,0.5],[1,0.5]];portConstraint=eastwest;top=0;left=0;right=0;bottom=0;fontSize=13;" parent="36T4z24LOP3LeD5Vtb74-15" vertex="1">
                    <mxGeometry y="205" width="250" height="30" as="geometry"/>
                </mxCell>
                <mxCell id="36T4z24LOP3LeD5Vtb74-26" value="" style="shape=partialRectangle;connectable=0;fillColor=none;top=0;left=0;bottom=0;right=0;editable=1;overflow=hidden;whiteSpace=wrap;html=1;fontSize=13;" parent="36T4z24LOP3LeD5Vtb74-25" vertex="1">
                    <mxGeometry width="30" height="30" as="geometry">
                        <mxRectangle width="30" height="30" as="alternateBounds"/>
                    </mxGeometry>
                </mxCell>
                <mxCell id="36T4z24LOP3LeD5Vtb74-27" value="FechaEvento: date" style="shape=partialRectangle;connectable=0;fillColor=none;top=0;left=0;bottom=0;right=0;align=left;spacingLeft=6;overflow=hidden;whiteSpace=wrap;html=1;fontSize=13;" parent="36T4z24LOP3LeD5Vtb74-25" vertex="1">
                    <mxGeometry x="30" width="220" height="30" as="geometry">
                        <mxRectangle width="220" height="30" as="alternateBounds"/>
                    </mxGeometry>
                </mxCell>
                <mxCell id="J7smQ2ikY7h7KTCIxJu_-4" value="" style="shape=tableRow;horizontal=0;startSize=0;swimlaneHead=0;swimlaneBody=0;fillColor=none;collapsible=0;dropTarget=0;points=[[0,0.5],[1,0.5]];portConstraint=eastwest;top=0;left=0;right=0;bottom=0;fontSize=13;" parent="36T4z24LOP3LeD5Vtb74-15" vertex="1">
                    <mxGeometry y="235" width="250" height="30" as="geometry"/>
                </mxCell>
                <mxCell id="J7smQ2ikY7h7KTCIxJu_-5" value="" style="shape=partialRectangle;connectable=0;fillColor=none;top=0;left=0;bottom=0;right=0;editable=1;overflow=hidden;fontSize=13;" parent="J7smQ2ikY7h7KTCIxJu_-4" vertex="1">
                    <mxGeometry width="30" height="30" as="geometry">
                        <mxRectangle width="30" height="30" as="alternateBounds"/>
                    </mxGeometry>
                </mxCell>
                <mxCell id="J7smQ2ikY7h7KTCIxJu_-6" value="Fase: int" style="shape=partialRectangle;connectable=0;fillColor=none;top=0;left=0;bottom=0;right=0;align=left;spacingLeft=6;overflow=hidden;fontSize=13;" parent="J7smQ2ikY7h7KTCIxJu_-4" vertex="1">
                    <mxGeometry x="30" width="220" height="30" as="geometry">
                        <mxRectangle width="220" height="30" as="alternateBounds"/>
                    </mxGeometry>
                </mxCell>
                <mxCell id="J7smQ2ikY7h7KTCIxJu_-1" value="" style="shape=tableRow;horizontal=0;startSize=0;swimlaneHead=0;swimlaneBody=0;fillColor=none;collapsible=0;dropTarget=0;points=[[0,0.5],[1,0.5]];portConstraint=eastwest;top=0;left=0;right=0;bottom=0;fontSize=13;" parent="36T4z24LOP3LeD5Vtb74-15" vertex="1">
                    <mxGeometry y="265" width="250" height="30" as="geometry"/>
                </mxCell>
                <mxCell id="J7smQ2ikY7h7KTCIxJu_-2" value="" style="shape=partialRectangle;connectable=0;fillColor=none;top=0;left=0;bottom=0;right=0;editable=1;overflow=hidden;fontSize=13;" parent="J7smQ2ikY7h7KTCIxJu_-1" vertex="1">
                    <mxGeometry width="30" height="30" as="geometry">
                        <mxRectangle width="30" height="30" as="alternateBounds"/>
                    </mxGeometry>
                </mxCell>
                <mxCell id="J7smQ2ikY7h7KTCIxJu_-3" value="HoraInicio: Time" style="shape=partialRectangle;connectable=0;fillColor=none;top=0;left=0;bottom=0;right=0;align=left;spacingLeft=6;overflow=hidden;fontSize=13;" parent="J7smQ2ikY7h7KTCIxJu_-1" vertex="1">
                    <mxGeometry x="30" width="220" height="30" as="geometry">
                        <mxRectangle width="220" height="30" as="alternateBounds"/>
                    </mxGeometry>
                </mxCell>
                <mxCell id="36T4z24LOP3LeD5Vtb74-126" value="" style="shape=tableRow;horizontal=0;startSize=0;swimlaneHead=0;swimlaneBody=0;fillColor=none;collapsible=0;dropTarget=0;points=[[0,0.5],[1,0.5]];portConstraint=eastwest;top=0;left=0;right=0;bottom=0;fontSize=13;" parent="36T4z24LOP3LeD5Vtb74-15" vertex="1">
                    <mxGeometry y="295" width="250" height="30" as="geometry"/>
                </mxCell>
                <mxCell id="36T4z24LOP3LeD5Vtb74-127" value="" style="shape=partialRectangle;connectable=0;fillColor=none;top=0;left=0;bottom=0;right=0;editable=1;overflow=hidden;fontSize=13;" parent="36T4z24LOP3LeD5Vtb74-126" vertex="1">
                    <mxGeometry width="30" height="30" as="geometry">
                        <mxRectangle width="30" height="30" as="alternateBounds"/>
                    </mxGeometry>
                </mxCell>
                <mxCell id="36T4z24LOP3LeD5Vtb74-128" value="NombreEvento: varchar(50)" style="shape=partialRectangle;connectable=0;fillColor=none;top=0;left=0;bottom=0;right=0;align=left;spacingLeft=6;overflow=hidden;fontSize=13;" parent="36T4z24LOP3LeD5Vtb74-126" vertex="1">
                    <mxGeometry x="30" width="220" height="30" as="geometry">
                        <mxRectangle width="220" height="30" as="alternateBounds"/>
                    </mxGeometry>
                </mxCell>
                <mxCell id="36T4z24LOP3LeD5Vtb74-138" value="Entrenador" style="shape=table;startSize=30;container=1;collapsible=1;childLayout=tableLayout;fixedRows=1;rowLines=0;fontStyle=1;align=center;resizeLast=1;html=1;fontSize=13;" parent="1" vertex="1">
                    <mxGeometry x="470" y="-390" width="210" height="316" as="geometry"/>
                </mxCell>
                <mxCell id="36T4z24LOP3LeD5Vtb74-139" value="" style="shape=tableRow;horizontal=0;startSize=0;swimlaneHead=0;swimlaneBody=0;fillColor=none;collapsible=0;dropTarget=0;points=[[0,0.5],[1,0.5]];portConstraint=eastwest;top=0;left=0;right=0;bottom=1;fontSize=13;" parent="36T4z24LOP3LeD5Vtb74-138" vertex="1">
                    <mxGeometry y="30" width="210" height="66" as="geometry"/>
                </mxCell>
                <mxCell id="36T4z24LOP3LeD5Vtb74-140" value="PK" style="shape=partialRectangle;connectable=0;fillColor=none;top=0;left=0;bottom=0;right=0;fontStyle=1;overflow=hidden;whiteSpace=wrap;html=1;fontSize=13;" parent="36T4z24LOP3LeD5Vtb74-139" vertex="1">
                    <mxGeometry width="30" height="66" as="geometry">
                        <mxRectangle width="30" height="66" as="alternateBounds"/>
                    </mxGeometry>
                </mxCell>
                <mxCell id="36T4z24LOP3LeD5Vtb74-141" value="IDEntrenador: int" style="shape=partialRectangle;connectable=0;fillColor=none;top=0;left=0;bottom=0;right=0;align=left;spacingLeft=6;fontStyle=5;overflow=hidden;whiteSpace=wrap;html=1;fontSize=13;" parent="36T4z24LOP3LeD5Vtb74-139" vertex="1">
                    <mxGeometry x="30" width="180" height="66" as="geometry">
                        <mxRectangle width="180" height="66" as="alternateBounds"/>
                    </mxGeometry>
                </mxCell>
                <mxCell id="36T4z24LOP3LeD5Vtb74-164" value="" style="shape=tableRow;horizontal=0;startSize=0;swimlaneHead=0;swimlaneBody=0;fillColor=none;collapsible=0;dropTarget=0;points=[[0,0.5],[1,0.5]];portConstraint=eastwest;top=0;left=0;right=0;bottom=1;fontStyle=0;spacing=2;fontSize=13;" parent="36T4z24LOP3LeD5Vtb74-138" vertex="1">
                    <mxGeometry y="96" width="210" height="30" as="geometry"/>
                </mxCell>
                <mxCell id="36T4z24LOP3LeD5Vtb74-165" value="FK" style="shape=partialRectangle;connectable=0;fillColor=none;top=0;left=0;bottom=0;right=0;editable=1;overflow=hidden;fontStyle=1;fontSize=13;" parent="36T4z24LOP3LeD5Vtb74-164" vertex="1">
                    <mxGeometry width="30" height="30" as="geometry">
                        <mxRectangle width="30" height="30" as="alternateBounds"/>
                    </mxGeometry>
                </mxCell>
                <mxCell id="36T4z24LOP3LeD5Vtb74-166" value="IDDisciplina: int" style="shape=partialRectangle;connectable=0;fillColor=none;top=0;left=0;bottom=0;right=0;align=left;spacingLeft=6;overflow=hidden;fontStyle=1;fontSize=13;" parent="36T4z24LOP3LeD5Vtb74-164" vertex="1">
                    <mxGeometry x="30" width="180" height="30" as="geometry">
                        <mxRectangle width="180" height="30" as="alternateBounds"/>
                    </mxGeometry>
                </mxCell>
                <mxCell id="wlwj411Kuk6rDO_IyDqp-84" value="" style="shape=tableRow;horizontal=0;startSize=0;swimlaneHead=0;swimlaneBody=0;fillColor=none;collapsible=0;dropTarget=0;points=[[0,0.5],[1,0.5]];portConstraint=eastwest;top=0;left=0;right=0;bottom=0;fontSize=13;" parent="36T4z24LOP3LeD5Vtb74-138" vertex="1">
                    <mxGeometry y="126" width="210" height="30" as="geometry"/>
                </mxCell>
                <mxCell id="wlwj411Kuk6rDO_IyDqp-85" value="" style="shape=partialRectangle;connectable=0;fillColor=none;top=0;left=0;bottom=0;right=0;editable=1;overflow=hidden;fontSize=13;" parent="wlwj411Kuk6rDO_IyDqp-84" vertex="1">
                    <mxGeometry width="30" height="30" as="geometry">
                        <mxRectangle width="30" height="30" as="alternateBounds"/>
                    </mxGeometry>
                </mxCell>
                <mxCell id="wlwj411Kuk6rDO_IyDqp-86" value="Nombre: varchar[(50)]" style="shape=partialRectangle;connectable=0;fillColor=none;top=0;left=0;bottom=0;right=0;align=left;spacingLeft=6;overflow=hidden;fontSize=13;" parent="wlwj411Kuk6rDO_IyDqp-84" vertex="1">
                    <mxGeometry x="30" width="180" height="30" as="geometry">
                        <mxRectangle width="180" height="30" as="alternateBounds"/>
                    </mxGeometry>
                </mxCell>
                <mxCell id="36T4z24LOP3LeD5Vtb74-167" value="" style="shape=tableRow;horizontal=0;startSize=0;swimlaneHead=0;swimlaneBody=0;fillColor=none;collapsible=0;dropTarget=0;points=[[0,0.5],[1,0.5]];portConstraint=eastwest;top=0;left=0;right=0;bottom=0;fontSize=13;" parent="36T4z24LOP3LeD5Vtb74-138" vertex="1">
                    <mxGeometry y="156" width="210" height="40" as="geometry"/>
                </mxCell>
                <mxCell id="36T4z24LOP3LeD5Vtb74-168" value="" style="shape=partialRectangle;connectable=0;fillColor=none;top=0;left=0;bottom=0;right=0;editable=1;overflow=hidden;fontSize=13;" parent="36T4z24LOP3LeD5Vtb74-167" vertex="1">
                    <mxGeometry width="30" height="40" as="geometry">
                        <mxRectangle width="30" height="40" as="alternateBounds"/>
                    </mxGeometry>
                </mxCell>
                <mxCell id="36T4z24LOP3LeD5Vtb74-169" value="PrimerApellido: varchar[(50)]" style="shape=partialRectangle;connectable=0;fillColor=none;top=0;left=0;bottom=0;right=0;align=left;spacingLeft=6;overflow=hidden;fontSize=13;" parent="36T4z24LOP3LeD5Vtb74-167" vertex="1">
                    <mxGeometry x="30" width="180" height="40" as="geometry">
                        <mxRectangle width="180" height="40" as="alternateBounds"/>
                    </mxGeometry>
                </mxCell>
                <mxCell id="36T4z24LOP3LeD5Vtb74-170" value="" style="shape=tableRow;horizontal=0;startSize=0;swimlaneHead=0;swimlaneBody=0;fillColor=none;collapsible=0;dropTarget=0;points=[[0,0.5],[1,0.5]];portConstraint=eastwest;top=0;left=0;right=0;bottom=0;fontSize=13;" parent="36T4z24LOP3LeD5Vtb74-138" vertex="1">
                    <mxGeometry y="196" width="210" height="30" as="geometry"/>
                </mxCell>
                <mxCell id="36T4z24LOP3LeD5Vtb74-171" value="" style="shape=partialRectangle;connectable=0;fillColor=none;top=0;left=0;bottom=0;right=0;editable=1;overflow=hidden;fontSize=13;" parent="36T4z24LOP3LeD5Vtb74-170" vertex="1">
                    <mxGeometry width="30" height="30" as="geometry">
                        <mxRectangle width="30" height="30" as="alternateBounds"/>
                    </mxGeometry>
                </mxCell>
                <mxCell id="36T4z24LOP3LeD5Vtb74-172" value="SegundoApellido: varchar[(50)]" style="shape=partialRectangle;connectable=0;fillColor=none;top=0;left=0;bottom=0;right=0;align=left;spacingLeft=6;overflow=hidden;fontSize=13;" parent="36T4z24LOP3LeD5Vtb74-170" vertex="1">
                    <mxGeometry x="30" width="180" height="30" as="geometry">
                        <mxRectangle width="180" height="30" as="alternateBounds"/>
                    </mxGeometry>
                </mxCell>
                <mxCell id="36T4z24LOP3LeD5Vtb74-142" value="" style="shape=tableRow;horizontal=0;startSize=0;swimlaneHead=0;swimlaneBody=0;fillColor=none;collapsible=0;dropTarget=0;points=[[0,0.5],[1,0.5]];portConstraint=eastwest;top=0;left=0;right=0;bottom=0;fontSize=13;" parent="36T4z24LOP3LeD5Vtb74-138" vertex="1">
                    <mxGeometry y="226" width="210" height="30" as="geometry"/>
                </mxCell>
                <mxCell id="36T4z24LOP3LeD5Vtb74-143" value="" style="shape=partialRectangle;connectable=0;fillColor=none;top=0;left=0;bottom=0;right=0;editable=1;overflow=hidden;whiteSpace=wrap;html=1;fontSize=13;" parent="36T4z24LOP3LeD5Vtb74-142" vertex="1">
                    <mxGeometry width="30" height="30" as="geometry">
                        <mxRectangle width="30" height="30" as="alternateBounds"/>
                    </mxGeometry>
                </mxCell>
                <mxCell id="36T4z24LOP3LeD5Vtb74-144" value="&lt;div style=&quot;font-size: 13px;&quot;&gt;FechaNacimiento:&amp;nbsp; date&lt;br style=&quot;font-size: 13px;&quot;&gt;&lt;/div&gt;" style="shape=partialRectangle;connectable=0;fillColor=none;top=0;left=0;bottom=0;right=0;align=left;spacingLeft=6;overflow=hidden;whiteSpace=wrap;html=1;fontSize=13;" parent="36T4z24LOP3LeD5Vtb74-142" vertex="1">
                    <mxGeometry x="30" width="180" height="30" as="geometry">
                        <mxRectangle width="180" height="30" as="alternateBounds"/>
                    </mxGeometry>
                </mxCell>
                <mxCell id="36T4z24LOP3LeD5Vtb74-145" value="" style="shape=tableRow;horizontal=0;startSize=0;swimlaneHead=0;swimlaneBody=0;fillColor=none;collapsible=0;dropTarget=0;points=[[0,0.5],[1,0.5]];portConstraint=eastwest;top=0;left=0;right=0;bottom=0;fontSize=13;" parent="36T4z24LOP3LeD5Vtb74-138" vertex="1">
                    <mxGeometry y="256" width="210" height="30" as="geometry"/>
                </mxCell>
                <mxCell id="36T4z24LOP3LeD5Vtb74-146" value="" style="shape=partialRectangle;connectable=0;fillColor=none;top=0;left=0;bottom=0;right=0;editable=1;overflow=hidden;whiteSpace=wrap;html=1;fontSize=13;" parent="36T4z24LOP3LeD5Vtb74-145" vertex="1">
                    <mxGeometry width="30" height="30" as="geometry">
                        <mxRectangle width="30" height="30" as="alternateBounds"/>
                    </mxGeometry>
                </mxCell>
                <mxCell id="36T4z24LOP3LeD5Vtb74-147" value="Nacionalidad: varchar[(50)] " style="shape=partialRectangle;connectable=0;fillColor=none;top=0;left=0;bottom=0;right=0;align=left;spacingLeft=6;overflow=hidden;whiteSpace=wrap;html=1;fontSize=13;" parent="36T4z24LOP3LeD5Vtb74-145" vertex="1">
                    <mxGeometry x="30" width="180" height="30" as="geometry">
                        <mxRectangle width="180" height="30" as="alternateBounds"/>
                    </mxGeometry>
                </mxCell>
                <mxCell id="36T4z24LOP3LeD5Vtb74-148" value="" style="shape=tableRow;horizontal=0;startSize=0;swimlaneHead=0;swimlaneBody=0;fillColor=none;collapsible=0;dropTarget=0;points=[[0,0.5],[1,0.5]];portConstraint=eastwest;top=0;left=0;right=0;bottom=0;fontSize=13;" parent="36T4z24LOP3LeD5Vtb74-138" vertex="1">
                    <mxGeometry y="286" width="210" height="30" as="geometry"/>
                </mxCell>
                <mxCell id="36T4z24LOP3LeD5Vtb74-149" value="" style="shape=partialRectangle;connectable=0;fillColor=none;top=0;left=0;bottom=0;right=0;editable=1;overflow=hidden;whiteSpace=wrap;html=1;fontSize=13;" parent="36T4z24LOP3LeD5Vtb74-148" vertex="1">
                    <mxGeometry width="30" height="30" as="geometry">
                        <mxRectangle width="30" height="30" as="alternateBounds"/>
                    </mxGeometry>
                </mxCell>
                <mxCell id="36T4z24LOP3LeD5Vtb74-150" value="&lt;div style=&quot;font-size: 13px;&quot;&gt;Género: char[(1)]&lt;br style=&quot;font-size: 13px;&quot;&gt;&lt;/div&gt;" style="shape=partialRectangle;connectable=0;fillColor=none;top=0;left=0;bottom=0;right=0;align=left;spacingLeft=6;overflow=hidden;whiteSpace=wrap;html=1;fontSize=13;" parent="36T4z24LOP3LeD5Vtb74-148" vertex="1">
                    <mxGeometry x="30" width="180" height="30" as="geometry">
                        <mxRectangle width="180" height="30" as="alternateBounds"/>
                    </mxGeometry>
                </mxCell>
                <mxCell id="36T4z24LOP3LeD5Vtb74-151" value="Arbitro" style="shape=table;startSize=30;container=1;collapsible=1;childLayout=tableLayout;fixedRows=1;rowLines=0;fontStyle=1;align=center;resizeLast=1;html=1;fontSize=13;" parent="1" vertex="1">
                    <mxGeometry x="920" y="-340" width="240" height="270" as="geometry"/>
                </mxCell>
                <mxCell id="36T4z24LOP3LeD5Vtb74-152" value="" style="shape=tableRow;horizontal=0;startSize=0;swimlaneHead=0;swimlaneBody=0;fillColor=none;collapsible=0;dropTarget=0;points=[[0,0.5],[1,0.5]];portConstraint=eastwest;top=0;left=0;right=0;bottom=1;fontSize=13;" parent="36T4z24LOP3LeD5Vtb74-151" vertex="1">
                    <mxGeometry y="30" width="240" height="30" as="geometry"/>
                </mxCell>
                <mxCell id="36T4z24LOP3LeD5Vtb74-153" value="PK" style="shape=partialRectangle;connectable=0;fillColor=none;top=0;left=0;bottom=0;right=0;fontStyle=1;overflow=hidden;whiteSpace=wrap;html=1;fontSize=13;" parent="36T4z24LOP3LeD5Vtb74-152" vertex="1">
                    <mxGeometry width="30" height="30" as="geometry">
                        <mxRectangle width="30" height="30" as="alternateBounds"/>
                    </mxGeometry>
                </mxCell>
                <mxCell id="36T4z24LOP3LeD5Vtb74-154" value="IDArbitro: int" style="shape=partialRectangle;connectable=0;fillColor=none;top=0;left=0;bottom=0;right=0;align=left;spacingLeft=6;fontStyle=5;overflow=hidden;whiteSpace=wrap;html=1;fontSize=13;" parent="36T4z24LOP3LeD5Vtb74-152" vertex="1">
                    <mxGeometry x="30" width="210" height="30" as="geometry">
                        <mxRectangle width="210" height="30" as="alternateBounds"/>
                    </mxGeometry>
                </mxCell>
                <mxCell id="q2yrCnXa5M1frAqMx9y7-29" value="" style="shape=tableRow;horizontal=0;startSize=0;swimlaneHead=0;swimlaneBody=0;fillColor=none;collapsible=0;dropTarget=0;points=[[0,0.5],[1,0.5]];portConstraint=eastwest;top=0;left=0;right=0;bottom=0;fontSize=13;" parent="36T4z24LOP3LeD5Vtb74-151" vertex="1">
                    <mxGeometry y="60" width="240" height="30" as="geometry"/>
                </mxCell>
                <mxCell id="q2yrCnXa5M1frAqMx9y7-30" value="FK" style="shape=partialRectangle;connectable=0;fillColor=none;top=0;left=0;bottom=1;right=0;editable=1;overflow=hidden;fontStyle=1;fontSize=13;" parent="q2yrCnXa5M1frAqMx9y7-29" vertex="1">
                    <mxGeometry width="30" height="30" as="geometry">
                        <mxRectangle width="30" height="30" as="alternateBounds"/>
                    </mxGeometry>
                </mxCell>
                <mxCell id="q2yrCnXa5M1frAqMx9y7-31" value="IDDisciplina: int" style="shape=partialRectangle;connectable=0;fillColor=none;top=0;left=0;bottom=1;right=0;align=left;spacingLeft=6;overflow=hidden;fontStyle=1;fontSize=13;" parent="q2yrCnXa5M1frAqMx9y7-29" vertex="1">
                    <mxGeometry x="30" width="210" height="30" as="geometry">
                        <mxRectangle width="210" height="30" as="alternateBounds"/>
                    </mxGeometry>
                </mxCell>
                <mxCell id="36T4z24LOP3LeD5Vtb74-155" value="" style="shape=tableRow;horizontal=0;startSize=0;swimlaneHead=0;swimlaneBody=0;fillColor=none;collapsible=0;dropTarget=0;points=[[0,0.5],[1,0.5]];portConstraint=eastwest;top=0;left=0;right=0;bottom=0;fontSize=13;" parent="36T4z24LOP3LeD5Vtb74-151" vertex="1">
                    <mxGeometry y="90" width="240" height="30" as="geometry"/>
                </mxCell>
                <mxCell id="36T4z24LOP3LeD5Vtb74-156" value="" style="shape=partialRectangle;connectable=0;fillColor=none;top=0;left=0;bottom=0;right=0;editable=1;overflow=hidden;whiteSpace=wrap;html=1;fontSize=13;" parent="36T4z24LOP3LeD5Vtb74-155" vertex="1">
                    <mxGeometry width="30" height="30" as="geometry">
                        <mxRectangle width="30" height="30" as="alternateBounds"/>
                    </mxGeometry>
                </mxCell>
                <mxCell id="36T4z24LOP3LeD5Vtb74-157" value="Nombre: varchar[(50)]" style="shape=partialRectangle;connectable=0;fillColor=none;top=0;left=0;bottom=0;right=0;align=left;spacingLeft=6;overflow=hidden;whiteSpace=wrap;html=1;fontSize=13;" parent="36T4z24LOP3LeD5Vtb74-155" vertex="1">
                    <mxGeometry x="30" width="210" height="30" as="geometry">
                        <mxRectangle width="210" height="30" as="alternateBounds"/>
                    </mxGeometry>
                </mxCell>
                <mxCell id="36T4z24LOP3LeD5Vtb74-158" value="" style="shape=tableRow;horizontal=0;startSize=0;swimlaneHead=0;swimlaneBody=0;fillColor=none;collapsible=0;dropTarget=0;points=[[0,0.5],[1,0.5]];portConstraint=eastwest;top=0;left=0;right=0;bottom=0;fontSize=13;" parent="36T4z24LOP3LeD5Vtb74-151" vertex="1">
                    <mxGeometry y="120" width="240" height="30" as="geometry"/>
                </mxCell>
                <mxCell id="36T4z24LOP3LeD5Vtb74-159" value="" style="shape=partialRectangle;connectable=0;fillColor=none;top=0;left=0;bottom=0;right=0;editable=1;overflow=hidden;whiteSpace=wrap;html=1;fontSize=13;" parent="36T4z24LOP3LeD5Vtb74-158" vertex="1">
                    <mxGeometry width="30" height="30" as="geometry">
                        <mxRectangle width="30" height="30" as="alternateBounds"/>
                    </mxGeometry>
                </mxCell>
                <mxCell id="36T4z24LOP3LeD5Vtb74-160" value="PrimerApellido: varchar[(50)]" style="shape=partialRectangle;connectable=0;fillColor=none;top=0;left=0;bottom=0;right=0;align=left;spacingLeft=6;overflow=hidden;whiteSpace=wrap;html=1;fontSize=13;" parent="36T4z24LOP3LeD5Vtb74-158" vertex="1">
                    <mxGeometry x="30" width="210" height="30" as="geometry">
                        <mxRectangle width="210" height="30" as="alternateBounds"/>
                    </mxGeometry>
                </mxCell>
                <mxCell id="36T4z24LOP3LeD5Vtb74-161" value="" style="shape=tableRow;horizontal=0;startSize=0;swimlaneHead=0;swimlaneBody=0;fillColor=none;collapsible=0;dropTarget=0;points=[[0,0.5],[1,0.5]];portConstraint=eastwest;top=0;left=0;right=0;bottom=0;fontSize=13;" parent="36T4z24LOP3LeD5Vtb74-151" vertex="1">
                    <mxGeometry y="150" width="240" height="30" as="geometry"/>
                </mxCell>
                <mxCell id="36T4z24LOP3LeD5Vtb74-162" value="" style="shape=partialRectangle;connectable=0;fillColor=none;top=0;left=0;bottom=0;right=0;editable=1;overflow=hidden;whiteSpace=wrap;html=1;fontSize=13;" parent="36T4z24LOP3LeD5Vtb74-161" vertex="1">
                    <mxGeometry width="30" height="30" as="geometry">
                        <mxRectangle width="30" height="30" as="alternateBounds"/>
                    </mxGeometry>
                </mxCell>
                <mxCell id="36T4z24LOP3LeD5Vtb74-163" value="SegundoApellido: varchar[(50)]" style="shape=partialRectangle;connectable=0;fillColor=none;top=0;left=0;bottom=0;right=0;align=left;spacingLeft=6;overflow=hidden;whiteSpace=wrap;html=1;fontSize=13;" parent="36T4z24LOP3LeD5Vtb74-161" vertex="1">
                    <mxGeometry x="30" width="210" height="30" as="geometry">
                        <mxRectangle width="210" height="30" as="alternateBounds"/>
                    </mxGeometry>
                </mxCell>
                <mxCell id="9tRWBcBBaT76NV6u4gut-1" value="" style="shape=tableRow;horizontal=0;startSize=0;swimlaneHead=0;swimlaneBody=0;fillColor=none;collapsible=0;dropTarget=0;points=[[0,0.5],[1,0.5]];portConstraint=eastwest;top=0;left=0;right=0;bottom=0;fontSize=13;" parent="36T4z24LOP3LeD5Vtb74-151" vertex="1">
                    <mxGeometry y="180" width="240" height="30" as="geometry"/>
                </mxCell>
                <mxCell id="9tRWBcBBaT76NV6u4gut-2" value="" style="shape=partialRectangle;connectable=0;fillColor=none;top=0;left=0;bottom=0;right=0;editable=1;overflow=hidden;whiteSpace=wrap;html=1;fontSize=13;" parent="9tRWBcBBaT76NV6u4gut-1" vertex="1">
                    <mxGeometry width="30" height="30" as="geometry">
                        <mxRectangle width="30" height="30" as="alternateBounds"/>
                    </mxGeometry>
                </mxCell>
                <mxCell id="9tRWBcBBaT76NV6u4gut-3" value="FechaNacimiento: date" style="shape=partialRectangle;connectable=0;fillColor=none;top=0;left=0;bottom=0;right=0;align=left;spacingLeft=6;overflow=hidden;whiteSpace=wrap;html=1;fontSize=13;" parent="9tRWBcBBaT76NV6u4gut-1" vertex="1">
                    <mxGeometry x="30" width="210" height="30" as="geometry">
                        <mxRectangle width="210" height="30" as="alternateBounds"/>
                    </mxGeometry>
                </mxCell>
                <mxCell id="nFd2LTMDBVpqRNZDv_q9-33" value="" style="shape=tableRow;horizontal=0;startSize=0;swimlaneHead=0;swimlaneBody=0;fillColor=none;collapsible=0;dropTarget=0;points=[[0,0.5],[1,0.5]];portConstraint=eastwest;top=0;left=0;right=0;bottom=0;fontSize=13;" parent="36T4z24LOP3LeD5Vtb74-151" vertex="1">
                    <mxGeometry y="210" width="240" height="30" as="geometry"/>
                </mxCell>
                <mxCell id="nFd2LTMDBVpqRNZDv_q9-34" value="" style="shape=partialRectangle;connectable=0;fillColor=none;top=0;left=0;bottom=0;right=0;editable=1;overflow=hidden;fontSize=13;" parent="nFd2LTMDBVpqRNZDv_q9-33" vertex="1">
                    <mxGeometry width="30" height="30" as="geometry">
                        <mxRectangle width="30" height="30" as="alternateBounds"/>
                    </mxGeometry>
                </mxCell>
                <mxCell id="nFd2LTMDBVpqRNZDv_q9-35" value="Nacionalidad: varchar[(50)]" style="shape=partialRectangle;connectable=0;fillColor=none;top=0;left=0;bottom=0;right=0;align=left;spacingLeft=6;overflow=hidden;fontSize=13;" parent="nFd2LTMDBVpqRNZDv_q9-33" vertex="1">
                    <mxGeometry x="30" width="210" height="30" as="geometry">
                        <mxRectangle width="210" height="30" as="alternateBounds"/>
                    </mxGeometry>
                </mxCell>
                <mxCell id="nFd2LTMDBVpqRNZDv_q9-36" value="" style="shape=tableRow;horizontal=0;startSize=0;swimlaneHead=0;swimlaneBody=0;fillColor=none;collapsible=0;dropTarget=0;points=[[0,0.5],[1,0.5]];portConstraint=eastwest;top=0;left=0;right=0;bottom=0;fontSize=13;" parent="36T4z24LOP3LeD5Vtb74-151" vertex="1">
                    <mxGeometry y="240" width="240" height="30" as="geometry"/>
                </mxCell>
                <mxCell id="nFd2LTMDBVpqRNZDv_q9-37" value="" style="shape=partialRectangle;connectable=0;fillColor=none;top=0;left=0;bottom=0;right=0;editable=1;overflow=hidden;fontSize=13;" parent="nFd2LTMDBVpqRNZDv_q9-36" vertex="1">
                    <mxGeometry width="30" height="30" as="geometry">
                        <mxRectangle width="30" height="30" as="alternateBounds"/>
                    </mxGeometry>
                </mxCell>
                <mxCell id="nFd2LTMDBVpqRNZDv_q9-38" value="Género: char[(1)]" style="shape=partialRectangle;connectable=0;fillColor=none;top=0;left=0;bottom=0;right=0;align=left;spacingLeft=6;overflow=hidden;fontSize=13;" parent="nFd2LTMDBVpqRNZDv_q9-36" vertex="1">
                    <mxGeometry x="30" width="210" height="30" as="geometry">
                        <mxRectangle width="210" height="30" as="alternateBounds"/>
                    </mxGeometry>
                </mxCell>
                <mxCell id="cqkPvYUDdSKqJvLp3jxx-15" value="Disciplina" style="shape=table;startSize=30;container=1;collapsible=1;childLayout=tableLayout;fixedRows=1;rowLines=0;fontStyle=1;align=center;resizeLast=1;html=1;fontSize=13;" parent="1" vertex="1">
                    <mxGeometry x="320" y="260" width="250" height="160" as="geometry"/>
                </mxCell>
                <mxCell id="cqkPvYUDdSKqJvLp3jxx-16" value="" style="shape=tableRow;horizontal=0;startSize=0;swimlaneHead=0;swimlaneBody=0;fillColor=none;collapsible=0;dropTarget=0;points=[[0,0.5],[1,0.5]];portConstraint=eastwest;top=0;left=0;right=0;bottom=1;fontSize=13;" parent="cqkPvYUDdSKqJvLp3jxx-15" vertex="1">
                    <mxGeometry y="30" width="250" height="70" as="geometry"/>
                </mxCell>
                <mxCell id="cqkPvYUDdSKqJvLp3jxx-17" value="PK" style="shape=partialRectangle;connectable=0;fillColor=none;top=0;left=0;bottom=0;right=0;fontStyle=1;overflow=hidden;whiteSpace=wrap;html=1;fontSize=13;" parent="cqkPvYUDdSKqJvLp3jxx-16" vertex="1">
                    <mxGeometry width="35" height="70" as="geometry">
                        <mxRectangle width="35" height="70" as="alternateBounds"/>
                    </mxGeometry>
                </mxCell>
                <mxCell id="cqkPvYUDdSKqJvLp3jxx-18" value="IDDisciplina: int" style="shape=partialRectangle;connectable=0;fillColor=none;top=0;left=0;bottom=0;right=0;align=left;spacingLeft=6;fontStyle=5;overflow=hidden;whiteSpace=wrap;html=1;fontSize=13;" parent="cqkPvYUDdSKqJvLp3jxx-16" vertex="1">
                    <mxGeometry x="35" width="215" height="70" as="geometry">
                        <mxRectangle width="215" height="70" as="alternateBounds"/>
                    </mxGeometry>
                </mxCell>
                <mxCell id="cqkPvYUDdSKqJvLp3jxx-19" value="" style="shape=tableRow;horizontal=0;startSize=0;swimlaneHead=0;swimlaneBody=0;fillColor=none;collapsible=0;dropTarget=0;points=[[0,0.5],[1,0.5]];portConstraint=eastwest;top=0;left=0;right=0;bottom=0;fontSize=13;" parent="cqkPvYUDdSKqJvLp3jxx-15" vertex="1">
                    <mxGeometry y="100" width="250" height="30" as="geometry"/>
                </mxCell>
                <mxCell id="cqkPvYUDdSKqJvLp3jxx-20" value="" style="shape=partialRectangle;connectable=0;fillColor=none;top=0;left=0;bottom=0;right=0;editable=1;overflow=hidden;whiteSpace=wrap;html=1;fontSize=13;" parent="cqkPvYUDdSKqJvLp3jxx-19" vertex="1">
                    <mxGeometry width="35" height="30" as="geometry">
                        <mxRectangle width="35" height="30" as="alternateBounds"/>
                    </mxGeometry>
                </mxCell>
                <mxCell id="cqkPvYUDdSKqJvLp3jxx-21" value="NombreDisciplina: varchar[(50)]" style="shape=partialRectangle;connectable=0;fillColor=none;top=0;left=0;bottom=0;right=0;align=left;spacingLeft=6;overflow=hidden;whiteSpace=wrap;html=1;fontSize=13;" parent="cqkPvYUDdSKqJvLp3jxx-19" vertex="1">
                    <mxGeometry x="35" width="215" height="30" as="geometry">
                        <mxRectangle width="215" height="30" as="alternateBounds"/>
                    </mxGeometry>
                </mxCell>
                <mxCell id="cqkPvYUDdSKqJvLp3jxx-22" value="" style="shape=tableRow;horizontal=0;startSize=0;swimlaneHead=0;swimlaneBody=0;fillColor=none;collapsible=0;dropTarget=0;points=[[0,0.5],[1,0.5]];portConstraint=eastwest;top=0;left=0;right=0;bottom=0;fontSize=13;" parent="cqkPvYUDdSKqJvLp3jxx-15" vertex="1">
                    <mxGeometry y="130" width="250" height="30" as="geometry"/>
                </mxCell>
                <mxCell id="cqkPvYUDdSKqJvLp3jxx-23" value="" style="shape=partialRectangle;connectable=0;fillColor=none;top=0;left=0;bottom=0;right=0;editable=1;overflow=hidden;whiteSpace=wrap;html=1;fontSize=13;" parent="cqkPvYUDdSKqJvLp3jxx-22" vertex="1">
                    <mxGeometry width="35" height="30" as="geometry">
                        <mxRectangle width="35" height="30" as="alternateBounds"/>
                    </mxGeometry>
                </mxCell>
                <mxCell id="cqkPvYUDdSKqJvLp3jxx-24" value="Categoría: varchar[(50)]" style="shape=partialRectangle;connectable=0;fillColor=none;top=0;left=0;bottom=0;right=0;align=left;spacingLeft=6;overflow=hidden;whiteSpace=wrap;html=1;fontSize=13;" parent="cqkPvYUDdSKqJvLp3jxx-22" vertex="1">
                    <mxGeometry x="35" width="215" height="30" as="geometry">
                        <mxRectangle width="215" height="30" as="alternateBounds"/>
                    </mxGeometry>
                </mxCell>
                <mxCell id="nFd2LTMDBVpqRNZDv_q9-1" value="Localidad" style="shape=table;startSize=30;container=1;collapsible=1;childLayout=tableLayout;fixedRows=1;rowLines=0;fontStyle=1;align=center;resizeLast=1;html=1;fontSize=13;" parent="1" vertex="1">
                    <mxGeometry x="380" y="500" width="240" height="260" as="geometry"/>
                </mxCell>
                <mxCell id="nFd2LTMDBVpqRNZDv_q9-2" value="" style="shape=tableRow;horizontal=0;startSize=0;swimlaneHead=0;swimlaneBody=0;fillColor=none;collapsible=0;dropTarget=0;points=[[0,0.5],[1,0.5]];portConstraint=eastwest;top=0;left=0;right=0;bottom=1;fontSize=13;" parent="nFd2LTMDBVpqRNZDv_q9-1" vertex="1">
                    <mxGeometry y="30" width="240" height="30" as="geometry"/>
                </mxCell>
                <mxCell id="nFd2LTMDBVpqRNZDv_q9-3" value="PK" style="shape=partialRectangle;connectable=0;fillColor=none;top=0;left=0;bottom=0;right=0;fontStyle=1;overflow=hidden;whiteSpace=wrap;html=1;fontSize=13;" parent="nFd2LTMDBVpqRNZDv_q9-2" vertex="1">
                    <mxGeometry width="30" height="30" as="geometry">
                        <mxRectangle width="30" height="30" as="alternateBounds"/>
                    </mxGeometry>
                </mxCell>
                <mxCell id="nFd2LTMDBVpqRNZDv_q9-4" value="NombreLocalidad:varchar[(50)]" style="shape=partialRectangle;connectable=0;fillColor=none;top=0;left=0;bottom=0;right=0;align=left;spacingLeft=6;fontStyle=5;overflow=hidden;whiteSpace=wrap;html=1;fontSize=13;" parent="nFd2LTMDBVpqRNZDv_q9-2" vertex="1">
                    <mxGeometry x="30" width="210" height="30" as="geometry">
                        <mxRectangle width="210" height="30" as="alternateBounds"/>
                    </mxGeometry>
                </mxCell>
                <mxCell id="nFd2LTMDBVpqRNZDv_q9-5" value="" style="shape=tableRow;horizontal=0;startSize=0;swimlaneHead=0;swimlaneBody=0;fillColor=none;collapsible=0;dropTarget=0;points=[[0,0.5],[1,0.5]];portConstraint=eastwest;top=0;left=0;right=0;bottom=1;fontSize=13;" parent="nFd2LTMDBVpqRNZDv_q9-1" vertex="1">
                    <mxGeometry y="60" width="240" height="30" as="geometry"/>
                </mxCell>
                <mxCell id="nFd2LTMDBVpqRNZDv_q9-6" value="PK" style="shape=partialRectangle;connectable=0;fillColor=none;top=0;left=0;bottom=0;right=0;editable=1;overflow=hidden;whiteSpace=wrap;html=1;fontStyle=1;fontSize=13;" parent="nFd2LTMDBVpqRNZDv_q9-5" vertex="1">
                    <mxGeometry width="30" height="30" as="geometry">
                        <mxRectangle width="30" height="30" as="alternateBounds"/>
                    </mxGeometry>
                </mxCell>
                <mxCell id="nFd2LTMDBVpqRNZDv_q9-7" value="IDDisciplina: int" style="shape=partialRectangle;connectable=0;fillColor=none;top=0;left=0;bottom=0;right=0;align=left;spacingLeft=6;overflow=hidden;whiteSpace=wrap;html=1;fontStyle=5;fontSize=13;" parent="nFd2LTMDBVpqRNZDv_q9-5" vertex="1">
                    <mxGeometry x="30" width="210" height="30" as="geometry">
                        <mxRectangle width="210" height="30" as="alternateBounds"/>
                    </mxGeometry>
                </mxCell>
                <mxCell id="nFd2LTMDBVpqRNZDv_q9-8" value="" style="shape=tableRow;horizontal=0;startSize=0;swimlaneHead=0;swimlaneBody=0;fillColor=none;collapsible=0;dropTarget=0;points=[[0,0.5],[1,0.5]];portConstraint=eastwest;top=0;left=0;right=0;bottom=0;fontSize=13;" parent="nFd2LTMDBVpqRNZDv_q9-1" vertex="1">
                    <mxGeometry y="90" width="240" height="20" as="geometry"/>
                </mxCell>
                <mxCell id="nFd2LTMDBVpqRNZDv_q9-9" value="" style="shape=partialRectangle;connectable=0;fillColor=none;top=0;left=0;bottom=0;right=0;editable=1;overflow=hidden;whiteSpace=wrap;html=1;fontSize=13;" parent="nFd2LTMDBVpqRNZDv_q9-8" vertex="1">
                    <mxGeometry width="30" height="20" as="geometry">
                        <mxRectangle width="30" height="20" as="alternateBounds"/>
                    </mxGeometry>
                </mxCell>
                <mxCell id="nFd2LTMDBVpqRNZDv_q9-10" value="Calle: varchar(50)" style="shape=partialRectangle;connectable=0;fillColor=none;top=0;left=0;bottom=0;right=0;align=left;spacingLeft=6;overflow=hidden;whiteSpace=wrap;html=1;fontSize=13;" parent="nFd2LTMDBVpqRNZDv_q9-8" vertex="1">
                    <mxGeometry x="30" width="210" height="20" as="geometry">
                        <mxRectangle width="210" height="20" as="alternateBounds"/>
                    </mxGeometry>
                </mxCell>
                <mxCell id="nFd2LTMDBVpqRNZDv_q9-11" value="" style="shape=tableRow;horizontal=0;startSize=0;swimlaneHead=0;swimlaneBody=0;fillColor=none;collapsible=0;dropTarget=0;points=[[0,0.5],[1,0.5]];portConstraint=eastwest;top=0;left=0;right=0;bottom=0;fontSize=13;" parent="nFd2LTMDBVpqRNZDv_q9-1" vertex="1">
                    <mxGeometry y="110" width="240" height="30" as="geometry"/>
                </mxCell>
                <mxCell id="nFd2LTMDBVpqRNZDv_q9-12" value="" style="shape=partialRectangle;connectable=0;fillColor=none;top=0;left=0;bottom=0;right=0;editable=1;overflow=hidden;whiteSpace=wrap;html=1;fontSize=13;" parent="nFd2LTMDBVpqRNZDv_q9-11" vertex="1">
                    <mxGeometry width="30" height="30" as="geometry">
                        <mxRectangle width="30" height="30" as="alternateBounds"/>
                    </mxGeometry>
                </mxCell>
                <mxCell id="nFd2LTMDBVpqRNZDv_q9-13" value="Número: Int" style="shape=partialRectangle;connectable=0;fillColor=none;top=0;left=0;bottom=0;right=0;align=left;spacingLeft=6;overflow=hidden;whiteSpace=wrap;html=1;fontSize=13;" parent="nFd2LTMDBVpqRNZDv_q9-11" vertex="1">
                    <mxGeometry x="30" width="210" height="30" as="geometry">
                        <mxRectangle width="210" height="30" as="alternateBounds"/>
                    </mxGeometry>
                </mxCell>
                <mxCell id="nFd2LTMDBVpqRNZDv_q9-14" value="" style="shape=tableRow;horizontal=0;startSize=0;swimlaneHead=0;swimlaneBody=0;fillColor=none;collapsible=0;dropTarget=0;points=[[0,0.5],[1,0.5]];portConstraint=eastwest;top=0;left=0;right=0;bottom=0;fontSize=13;" parent="nFd2LTMDBVpqRNZDv_q9-1" vertex="1">
                    <mxGeometry y="140" width="240" height="30" as="geometry"/>
                </mxCell>
                <mxCell id="nFd2LTMDBVpqRNZDv_q9-15" value="" style="shape=partialRectangle;connectable=0;fillColor=none;top=0;left=0;bottom=0;right=0;editable=1;overflow=hidden;fontSize=13;" parent="nFd2LTMDBVpqRNZDv_q9-14" vertex="1">
                    <mxGeometry width="30" height="30" as="geometry">
                        <mxRectangle width="30" height="30" as="alternateBounds"/>
                    </mxGeometry>
                </mxCell>
                <mxCell id="nFd2LTMDBVpqRNZDv_q9-16" value="Ciudad: varchar[(50)]" style="shape=partialRectangle;connectable=0;fillColor=none;top=0;left=0;bottom=0;right=0;align=left;spacingLeft=6;overflow=hidden;fontSize=13;" parent="nFd2LTMDBVpqRNZDv_q9-14" vertex="1">
                    <mxGeometry x="30" width="210" height="30" as="geometry">
                        <mxRectangle width="210" height="30" as="alternateBounds"/>
                    </mxGeometry>
                </mxCell>
                <mxCell id="nFd2LTMDBVpqRNZDv_q9-17" value="" style="shape=tableRow;horizontal=0;startSize=0;swimlaneHead=0;swimlaneBody=0;fillColor=none;collapsible=0;dropTarget=0;points=[[0,0.5],[1,0.5]];portConstraint=eastwest;top=0;left=0;right=0;bottom=0;fontSize=13;" parent="nFd2LTMDBVpqRNZDv_q9-1" vertex="1">
                    <mxGeometry y="170" width="240" height="30" as="geometry"/>
                </mxCell>
                <mxCell id="nFd2LTMDBVpqRNZDv_q9-18" value="" style="shape=partialRectangle;connectable=0;fillColor=none;top=0;left=0;bottom=0;right=0;editable=1;overflow=hidden;fontSize=13;" parent="nFd2LTMDBVpqRNZDv_q9-17" vertex="1">
                    <mxGeometry width="30" height="30" as="geometry">
                        <mxRectangle width="30" height="30" as="alternateBounds"/>
                    </mxGeometry>
                </mxCell>
                <mxCell id="nFd2LTMDBVpqRNZDv_q9-19" value="País: varchar[(50)]" style="shape=partialRectangle;connectable=0;fillColor=none;top=0;left=0;bottom=0;right=0;align=left;spacingLeft=6;overflow=hidden;fontSize=13;" parent="nFd2LTMDBVpqRNZDv_q9-17" vertex="1">
                    <mxGeometry x="30" width="210" height="30" as="geometry">
                        <mxRectangle width="210" height="30" as="alternateBounds"/>
                    </mxGeometry>
                </mxCell>
                <mxCell id="nFd2LTMDBVpqRNZDv_q9-24" value="" style="shape=tableRow;horizontal=0;startSize=0;swimlaneHead=0;swimlaneBody=0;fillColor=none;collapsible=0;dropTarget=0;points=[[0,0.5],[1,0.5]];portConstraint=eastwest;top=0;left=0;right=0;bottom=0;fontSize=13;" parent="nFd2LTMDBVpqRNZDv_q9-1" vertex="1">
                    <mxGeometry y="200" width="240" height="30" as="geometry"/>
                </mxCell>
                <mxCell id="nFd2LTMDBVpqRNZDv_q9-25" value="" style="shape=partialRectangle;connectable=0;fillColor=none;top=0;left=0;bottom=0;right=0;editable=1;overflow=hidden;fontSize=13;" parent="nFd2LTMDBVpqRNZDv_q9-24" vertex="1">
                    <mxGeometry width="30" height="30" as="geometry">
                        <mxRectangle width="30" height="30" as="alternateBounds"/>
                    </mxGeometry>
                </mxCell>
                <mxCell id="nFd2LTMDBVpqRNZDv_q9-26" value="Aforo: int" style="shape=partialRectangle;connectable=0;fillColor=none;top=0;left=0;bottom=0;right=0;align=left;spacingLeft=6;overflow=hidden;fontSize=13;" parent="nFd2LTMDBVpqRNZDv_q9-24" vertex="1">
                    <mxGeometry x="30" width="210" height="30" as="geometry">
                        <mxRectangle width="210" height="30" as="alternateBounds"/>
                    </mxGeometry>
                </mxCell>
                <mxCell id="nFd2LTMDBVpqRNZDv_q9-27" value="" style="shape=tableRow;horizontal=0;startSize=0;swimlaneHead=0;swimlaneBody=0;fillColor=none;collapsible=0;dropTarget=0;points=[[0,0.5],[1,0.5]];portConstraint=eastwest;top=0;left=0;right=0;bottom=0;fontSize=13;" parent="nFd2LTMDBVpqRNZDv_q9-1" vertex="1">
                    <mxGeometry y="230" width="240" height="30" as="geometry"/>
                </mxCell>
                <mxCell id="nFd2LTMDBVpqRNZDv_q9-28" value="" style="shape=partialRectangle;connectable=0;fillColor=none;top=0;left=0;bottom=0;right=0;editable=1;overflow=hidden;fontSize=13;" parent="nFd2LTMDBVpqRNZDv_q9-27" vertex="1">
                    <mxGeometry width="30" height="30" as="geometry">
                        <mxRectangle width="30" height="30" as="alternateBounds"/>
                    </mxGeometry>
                </mxCell>
                <mxCell id="nFd2LTMDBVpqRNZDv_q9-29" value="Tipo: varchar(50)" style="shape=partialRectangle;connectable=0;fillColor=none;top=0;left=0;bottom=0;right=0;align=left;spacingLeft=6;overflow=hidden;fontSize=13;" parent="nFd2LTMDBVpqRNZDv_q9-27" vertex="1">
                    <mxGeometry x="30" width="210" height="30" as="geometry">
                        <mxRectangle width="210" height="30" as="alternateBounds"/>
                    </mxGeometry>
                </mxCell>
                <mxCell id="cqkPvYUDdSKqJvLp3jxx-44" value="Patrocinador" style="shape=table;startSize=30;container=1;collapsible=1;childLayout=tableLayout;fixedRows=1;rowLines=0;fontStyle=1;align=center;resizeLast=1;html=1;fontSize=13;" parent="1" vertex="1">
                    <mxGeometry x="1060" y="240" width="260" height="60" as="geometry"/>
                </mxCell>
                <mxCell id="cqkPvYUDdSKqJvLp3jxx-45" value="" style="shape=tableRow;horizontal=0;startSize=0;swimlaneHead=0;swimlaneBody=0;fillColor=none;collapsible=0;dropTarget=0;points=[[0,0.5],[1,0.5]];portConstraint=eastwest;top=0;left=0;right=0;bottom=1;fontSize=13;" parent="cqkPvYUDdSKqJvLp3jxx-44" vertex="1">
                    <mxGeometry y="30" width="260" height="30" as="geometry"/>
                </mxCell>
                <mxCell id="cqkPvYUDdSKqJvLp3jxx-46" value="PK" style="shape=partialRectangle;connectable=0;fillColor=none;top=0;left=0;bottom=0;right=0;fontStyle=1;overflow=hidden;whiteSpace=wrap;html=1;fontSize=13;" parent="cqkPvYUDdSKqJvLp3jxx-45" vertex="1">
                    <mxGeometry width="30" height="30" as="geometry">
                        <mxRectangle width="30" height="30" as="alternateBounds"/>
                    </mxGeometry>
                </mxCell>
                <mxCell id="cqkPvYUDdSKqJvLp3jxx-47" value="NombrePatrocinador:&amp;nbsp;&lt;span style=&quot;font-size: 13px;&quot;&gt;varchar[(50)]&lt;/span&gt;" style="shape=partialRectangle;connectable=0;fillColor=none;top=0;left=0;bottom=0;right=0;align=left;spacingLeft=6;fontStyle=5;overflow=hidden;whiteSpace=wrap;html=1;fontSize=13;" parent="cqkPvYUDdSKqJvLp3jxx-45" vertex="1">
                    <mxGeometry x="30" width="230" height="30" as="geometry">
                        <mxRectangle width="230" height="30" as="alternateBounds"/>
                    </mxGeometry>
                </mxCell>
                <mxCell id="8CGQNzVvqwp2ry-6FXMm-36" value="Atleta" style="shape=table;startSize=18;container=1;collapsible=1;childLayout=tableLayout;fixedRows=1;rowLines=0;fontStyle=1;align=center;resizeLast=1;html=1;fontSize=13;" parent="1" vertex="1">
                    <mxGeometry x="-10" y="-430" width="220" height="355" as="geometry"/>
                </mxCell>
                <mxCell id="8CGQNzVvqwp2ry-6FXMm-37" value="" style="shape=tableRow;horizontal=0;startSize=0;swimlaneHead=0;swimlaneBody=0;fillColor=none;collapsible=0;dropTarget=0;points=[[0,0.5],[1,0.5]];portConstraint=eastwest;top=0;left=0;right=0;bottom=1;fontSize=13;" parent="8CGQNzVvqwp2ry-6FXMm-36" vertex="1">
                    <mxGeometry y="18" width="220" height="72" as="geometry"/>
                </mxCell>
                <mxCell id="8CGQNzVvqwp2ry-6FXMm-38" value="PK" style="shape=partialRectangle;connectable=0;fillColor=none;top=0;left=0;bottom=0;right=0;fontStyle=1;overflow=hidden;whiteSpace=wrap;html=1;fontSize=13;" parent="8CGQNzVvqwp2ry-6FXMm-37" vertex="1">
                    <mxGeometry width="30" height="72" as="geometry">
                        <mxRectangle width="30" height="72" as="alternateBounds"/>
                    </mxGeometry>
                </mxCell>
                <mxCell id="8CGQNzVvqwp2ry-6FXMm-39" value="IDAtleta: int" style="shape=partialRectangle;connectable=0;fillColor=none;top=0;left=0;bottom=0;right=0;align=left;spacingLeft=6;fontStyle=5;overflow=hidden;whiteSpace=wrap;html=1;fontSize=13;" parent="8CGQNzVvqwp2ry-6FXMm-37" vertex="1">
                    <mxGeometry x="30" width="190" height="72" as="geometry">
                        <mxRectangle width="190" height="72" as="alternateBounds"/>
                    </mxGeometry>
                </mxCell>
                <mxCell id="q2yrCnXa5M1frAqMx9y7-25" value="" style="shape=tableRow;horizontal=0;startSize=0;swimlaneHead=0;swimlaneBody=0;fillColor=none;collapsible=0;dropTarget=0;points=[[0,0.5],[1,0.5]];portConstraint=eastwest;top=0;left=0;right=0;bottom=0;fontSize=13;" parent="8CGQNzVvqwp2ry-6FXMm-36" vertex="1">
                    <mxGeometry y="90" width="220" height="35" as="geometry"/>
                </mxCell>
                <mxCell id="q2yrCnXa5M1frAqMx9y7-26" value="FK" style="shape=partialRectangle;connectable=0;fillColor=none;top=0;left=0;bottom=1;right=0;editable=1;overflow=hidden;fontStyle=1;fontSize=13;" parent="q2yrCnXa5M1frAqMx9y7-25" vertex="1">
                    <mxGeometry width="30" height="35" as="geometry">
                        <mxRectangle width="30" height="35" as="alternateBounds"/>
                    </mxGeometry>
                </mxCell>
                <mxCell id="q2yrCnXa5M1frAqMx9y7-27" value="NombrePaís: varchar[(50)] " style="shape=partialRectangle;connectable=0;fillColor=none;top=0;left=0;bottom=1;right=0;align=left;spacingLeft=6;overflow=hidden;fontStyle=1;fontSize=13;" parent="q2yrCnXa5M1frAqMx9y7-25" vertex="1">
                    <mxGeometry x="30" width="190" height="35" as="geometry">
                        <mxRectangle width="190" height="35" as="alternateBounds"/>
                    </mxGeometry>
                </mxCell>
                <mxCell id="wlwj411Kuk6rDO_IyDqp-102" value="" style="shape=tableRow;horizontal=0;startSize=0;swimlaneHead=0;swimlaneBody=0;fillColor=none;collapsible=0;dropTarget=0;points=[[0,0.5],[1,0.5]];portConstraint=eastwest;top=0;left=0;right=0;bottom=0;fontSize=13;" parent="8CGQNzVvqwp2ry-6FXMm-36" vertex="1">
                    <mxGeometry y="125" width="220" height="30" as="geometry"/>
                </mxCell>
                <mxCell id="wlwj411Kuk6rDO_IyDqp-103" value="FK" style="shape=partialRectangle;connectable=0;fillColor=none;top=0;left=0;bottom=1;right=0;editable=1;overflow=hidden;fontStyle=1;fontSize=13;" parent="wlwj411Kuk6rDO_IyDqp-102" vertex="1">
                    <mxGeometry width="30" height="30" as="geometry">
                        <mxRectangle width="30" height="30" as="alternateBounds"/>
                    </mxGeometry>
                </mxCell>
                <mxCell id="wlwj411Kuk6rDO_IyDqp-104" value="IDEntrenador: int" style="shape=partialRectangle;connectable=0;fillColor=none;top=0;left=0;bottom=1;right=0;align=left;spacingLeft=6;overflow=hidden;fontStyle=1;fontSize=13;" parent="wlwj411Kuk6rDO_IyDqp-102" vertex="1">
                    <mxGeometry x="30" width="190" height="30" as="geometry">
                        <mxRectangle width="190" height="30" as="alternateBounds"/>
                    </mxGeometry>
                </mxCell>
                <mxCell id="8CGQNzVvqwp2ry-6FXMm-40" value="" style="shape=tableRow;horizontal=0;startSize=0;swimlaneHead=0;swimlaneBody=0;fillColor=none;collapsible=0;dropTarget=0;points=[[0,0.5],[1,0.5]];portConstraint=eastwest;top=0;left=0;right=0;bottom=0;fontSize=13;" parent="8CGQNzVvqwp2ry-6FXMm-36" vertex="1">
                    <mxGeometry y="155" width="220" height="30" as="geometry"/>
                </mxCell>
                <mxCell id="8CGQNzVvqwp2ry-6FXMm-41" value="" style="shape=partialRectangle;connectable=0;fillColor=none;top=0;left=0;bottom=0;right=0;editable=1;overflow=hidden;fontSize=13;" parent="8CGQNzVvqwp2ry-6FXMm-40" vertex="1">
                    <mxGeometry width="30" height="30" as="geometry">
                        <mxRectangle width="30" height="30" as="alternateBounds"/>
                    </mxGeometry>
                </mxCell>
                <mxCell id="8CGQNzVvqwp2ry-6FXMm-42" value="Temporada: int" style="shape=partialRectangle;connectable=0;fillColor=none;top=0;left=0;bottom=0;right=0;align=left;spacingLeft=6;overflow=hidden;fontSize=13;" parent="8CGQNzVvqwp2ry-6FXMm-40" vertex="1">
                    <mxGeometry x="30" width="190" height="30" as="geometry">
                        <mxRectangle width="190" height="30" as="alternateBounds"/>
                    </mxGeometry>
                </mxCell>
                <mxCell id="wlwj411Kuk6rDO_IyDqp-107" value="" style="shape=tableRow;horizontal=0;startSize=0;swimlaneHead=0;swimlaneBody=0;fillColor=none;collapsible=0;dropTarget=0;points=[[0,0.5],[1,0.5]];portConstraint=eastwest;top=0;left=0;right=0;bottom=0;fontSize=13;" parent="8CGQNzVvqwp2ry-6FXMm-36" vertex="1">
                    <mxGeometry y="185" width="220" height="30" as="geometry"/>
                </mxCell>
                <mxCell id="wlwj411Kuk6rDO_IyDqp-108" value="" style="shape=partialRectangle;connectable=0;fillColor=none;top=0;left=0;bottom=0;right=0;editable=1;overflow=hidden;fontSize=13;" parent="wlwj411Kuk6rDO_IyDqp-107" vertex="1">
                    <mxGeometry width="30" height="30" as="geometry">
                        <mxRectangle width="30" height="30" as="alternateBounds"/>
                    </mxGeometry>
                </mxCell>
                <mxCell id="wlwj411Kuk6rDO_IyDqp-109" value="Nombre: varchar[(50)]" style="shape=partialRectangle;connectable=0;fillColor=none;top=0;left=0;bottom=0;right=0;align=left;spacingLeft=6;overflow=hidden;fontSize=13;" parent="wlwj411Kuk6rDO_IyDqp-107" vertex="1">
                    <mxGeometry x="30" width="190" height="30" as="geometry">
                        <mxRectangle width="190" height="30" as="alternateBounds"/>
                    </mxGeometry>
                </mxCell>
                <mxCell id="8CGQNzVvqwp2ry-6FXMm-43" value="" style="shape=tableRow;horizontal=0;startSize=0;swimlaneHead=0;swimlaneBody=0;fillColor=none;collapsible=0;dropTarget=0;points=[[0,0.5],[1,0.5]];portConstraint=eastwest;top=0;left=0;right=0;bottom=0;fontSize=13;" parent="8CGQNzVvqwp2ry-6FXMm-36" vertex="1">
                    <mxGeometry y="215" width="220" height="30" as="geometry"/>
                </mxCell>
                <mxCell id="8CGQNzVvqwp2ry-6FXMm-44" value="" style="shape=partialRectangle;connectable=0;fillColor=none;top=0;left=0;bottom=0;right=0;editable=1;overflow=hidden;fontSize=13;" parent="8CGQNzVvqwp2ry-6FXMm-43" vertex="1">
                    <mxGeometry width="30" height="30" as="geometry">
                        <mxRectangle width="30" height="30" as="alternateBounds"/>
                    </mxGeometry>
                </mxCell>
                <mxCell id="8CGQNzVvqwp2ry-6FXMm-45" value="PrimerApellido: varchar[(50)]" style="shape=partialRectangle;connectable=0;fillColor=none;top=0;left=0;bottom=0;right=0;align=left;spacingLeft=6;overflow=hidden;fontSize=13;" parent="8CGQNzVvqwp2ry-6FXMm-43" vertex="1">
                    <mxGeometry x="30" width="190" height="30" as="geometry">
                        <mxRectangle width="190" height="30" as="alternateBounds"/>
                    </mxGeometry>
                </mxCell>
                <mxCell id="8CGQNzVvqwp2ry-6FXMm-46" value="" style="shape=tableRow;horizontal=0;startSize=0;swimlaneHead=0;swimlaneBody=0;fillColor=none;collapsible=0;dropTarget=0;points=[[0,0.5],[1,0.5]];portConstraint=eastwest;top=0;left=0;right=0;bottom=0;fontSize=13;" parent="8CGQNzVvqwp2ry-6FXMm-36" vertex="1">
                    <mxGeometry y="245" width="220" height="30" as="geometry"/>
                </mxCell>
                <mxCell id="8CGQNzVvqwp2ry-6FXMm-47" value="" style="shape=partialRectangle;connectable=0;fillColor=none;top=0;left=0;bottom=0;right=0;editable=1;overflow=hidden;fontSize=13;" parent="8CGQNzVvqwp2ry-6FXMm-46" vertex="1">
                    <mxGeometry width="30" height="30" as="geometry">
                        <mxRectangle width="30" height="30" as="alternateBounds"/>
                    </mxGeometry>
                </mxCell>
                <mxCell id="8CGQNzVvqwp2ry-6FXMm-48" value="SegundoApellido: varchar[(50)]" style="shape=partialRectangle;connectable=0;fillColor=none;top=0;left=0;bottom=0;right=0;align=left;spacingLeft=6;overflow=hidden;fontSize=13;" parent="8CGQNzVvqwp2ry-6FXMm-46" vertex="1">
                    <mxGeometry x="30" width="190" height="30" as="geometry">
                        <mxRectangle width="190" height="30" as="alternateBounds"/>
                    </mxGeometry>
                </mxCell>
                <mxCell id="8CGQNzVvqwp2ry-6FXMm-49" value="" style="shape=tableRow;horizontal=0;startSize=0;swimlaneHead=0;swimlaneBody=0;fillColor=none;collapsible=0;dropTarget=0;points=[[0,0.5],[1,0.5]];portConstraint=eastwest;top=0;left=0;right=0;bottom=0;fontSize=13;" parent="8CGQNzVvqwp2ry-6FXMm-36" vertex="1">
                    <mxGeometry y="275" width="220" height="30" as="geometry"/>
                </mxCell>
                <mxCell id="8CGQNzVvqwp2ry-6FXMm-50" value="" style="shape=partialRectangle;connectable=0;fillColor=none;top=0;left=0;bottom=0;right=0;editable=1;overflow=hidden;whiteSpace=wrap;html=1;fontSize=13;" parent="8CGQNzVvqwp2ry-6FXMm-49" vertex="1">
                    <mxGeometry width="30" height="30" as="geometry">
                        <mxRectangle width="30" height="30" as="alternateBounds"/>
                    </mxGeometry>
                </mxCell>
                <mxCell id="8CGQNzVvqwp2ry-6FXMm-51" value="&lt;div style=&quot;font-size: 13px;&quot;&gt;FechaNacimiento:&amp;nbsp; date&lt;br style=&quot;font-size: 13px;&quot;&gt;&lt;/div&gt;" style="shape=partialRectangle;connectable=0;fillColor=none;top=0;left=0;bottom=0;right=0;align=left;spacingLeft=6;overflow=hidden;whiteSpace=wrap;html=1;fontSize=13;" parent="8CGQNzVvqwp2ry-6FXMm-49" vertex="1">
                    <mxGeometry x="30" width="190" height="30" as="geometry">
                        <mxRectangle width="190" height="30" as="alternateBounds"/>
                    </mxGeometry>
                </mxCell>
                <mxCell id="8CGQNzVvqwp2ry-6FXMm-52" value="" style="shape=tableRow;horizontal=0;startSize=0;swimlaneHead=0;swimlaneBody=0;fillColor=none;collapsible=0;dropTarget=0;points=[[0,0.5],[1,0.5]];portConstraint=eastwest;top=0;left=0;right=0;bottom=0;fontSize=13;" parent="8CGQNzVvqwp2ry-6FXMm-36" vertex="1">
                    <mxGeometry y="305" width="220" height="30" as="geometry"/>
                </mxCell>
                <mxCell id="8CGQNzVvqwp2ry-6FXMm-53" value="" style="shape=partialRectangle;connectable=0;fillColor=none;top=0;left=0;bottom=0;right=0;editable=1;overflow=hidden;whiteSpace=wrap;html=1;fontSize=13;" parent="8CGQNzVvqwp2ry-6FXMm-52" vertex="1">
                    <mxGeometry width="30" height="30" as="geometry">
                        <mxRectangle width="30" height="30" as="alternateBounds"/>
                    </mxGeometry>
                </mxCell>
                <mxCell id="8CGQNzVvqwp2ry-6FXMm-54" value="Nacionalidad: varchar[(50)] " style="shape=partialRectangle;connectable=0;fillColor=none;top=0;left=0;bottom=0;right=0;align=left;spacingLeft=6;overflow=hidden;whiteSpace=wrap;html=1;fontSize=13;" parent="8CGQNzVvqwp2ry-6FXMm-52" vertex="1">
                    <mxGeometry x="30" width="190" height="30" as="geometry">
                        <mxRectangle width="190" height="30" as="alternateBounds"/>
                    </mxGeometry>
                </mxCell>
                <mxCell id="8CGQNzVvqwp2ry-6FXMm-55" value="" style="shape=tableRow;horizontal=0;startSize=0;swimlaneHead=0;swimlaneBody=0;fillColor=none;collapsible=0;dropTarget=0;points=[[0,0.5],[1,0.5]];portConstraint=eastwest;top=0;left=0;right=0;bottom=0;fontSize=13;" parent="8CGQNzVvqwp2ry-6FXMm-36" vertex="1">
                    <mxGeometry y="335" width="220" height="20" as="geometry"/>
                </mxCell>
                <mxCell id="8CGQNzVvqwp2ry-6FXMm-56" value="" style="shape=partialRectangle;connectable=0;fillColor=none;top=0;left=0;bottom=0;right=0;editable=1;overflow=hidden;whiteSpace=wrap;html=1;fontSize=13;" parent="8CGQNzVvqwp2ry-6FXMm-55" vertex="1">
                    <mxGeometry width="30" height="20" as="geometry">
                        <mxRectangle width="30" height="20" as="alternateBounds"/>
                    </mxGeometry>
                </mxCell>
                <mxCell id="8CGQNzVvqwp2ry-6FXMm-57" value="&lt;div style=&quot;font-size: 13px;&quot;&gt;Género: char[(1)]&lt;br style=&quot;font-size: 13px;&quot;&gt;&lt;/div&gt;" style="shape=partialRectangle;connectable=0;fillColor=none;top=0;left=0;bottom=0;right=0;align=left;spacingLeft=6;overflow=hidden;whiteSpace=wrap;html=1;fontSize=13;" parent="8CGQNzVvqwp2ry-6FXMm-55" vertex="1">
                    <mxGeometry x="30" width="190" height="20" as="geometry">
                        <mxRectangle width="190" height="20" as="alternateBounds"/>
                    </mxGeometry>
                </mxCell>
                <mxCell id="nFd2LTMDBVpqRNZDv_q9-53" value="País" style="shape=table;startSize=30;container=1;collapsible=1;childLayout=tableLayout;fixedRows=1;rowLines=0;fontStyle=1;align=center;resizeLast=1;html=1;fontSize=13;" parent="1" vertex="1">
                    <mxGeometry x="-610" y="-260" width="210" height="73" as="geometry"/>
                </mxCell>
                <mxCell id="nFd2LTMDBVpqRNZDv_q9-54" value="" style="shape=tableRow;horizontal=0;startSize=0;swimlaneHead=0;swimlaneBody=0;fillColor=none;collapsible=0;dropTarget=0;points=[[0,0.5],[1,0.5]];portConstraint=eastwest;top=0;left=0;right=0;bottom=1;fontSize=13;" parent="nFd2LTMDBVpqRNZDv_q9-53" vertex="1">
                    <mxGeometry y="30" width="210" height="43" as="geometry"/>
                </mxCell>
                <mxCell id="nFd2LTMDBVpqRNZDv_q9-55" value="PK" style="shape=partialRectangle;connectable=0;fillColor=none;top=0;left=0;bottom=0;right=0;fontStyle=1;overflow=hidden;whiteSpace=wrap;html=1;fontSize=13;" parent="nFd2LTMDBVpqRNZDv_q9-54" vertex="1">
                    <mxGeometry width="30" height="43" as="geometry">
                        <mxRectangle width="30" height="43" as="alternateBounds"/>
                    </mxGeometry>
                </mxCell>
                <mxCell id="nFd2LTMDBVpqRNZDv_q9-56" value="&lt;span style=&quot;text-wrap: nowrap; font-size: 13px;&quot;&gt;NombrePaís: varChar [50]&lt;/span&gt;" style="shape=partialRectangle;connectable=0;fillColor=none;top=0;left=0;bottom=0;right=0;align=left;spacingLeft=6;fontStyle=5;overflow=hidden;whiteSpace=wrap;html=1;fontSize=13;" parent="nFd2LTMDBVpqRNZDv_q9-54" vertex="1">
                    <mxGeometry x="30" width="180" height="43" as="geometry">
                        <mxRectangle width="180" height="43" as="alternateBounds"/>
                    </mxGeometry>
                </mxCell>
                <mxCell id="9tRWBcBBaT76NV6u4gut-6" value="Cliente" style="shape=table;startSize=30;container=1;collapsible=1;childLayout=tableLayout;fixedRows=1;rowLines=0;fontStyle=1;align=center;resizeLast=1;html=1;fontSize=13;" parent="1" vertex="1">
                    <mxGeometry x="170" y="890" width="180" height="60" as="geometry"/>
                </mxCell>
                <mxCell id="9tRWBcBBaT76NV6u4gut-7" value="" style="shape=tableRow;horizontal=0;startSize=0;swimlaneHead=0;swimlaneBody=0;fillColor=none;collapsible=0;dropTarget=0;points=[[0,0.5],[1,0.5]];portConstraint=eastwest;top=0;left=0;right=0;bottom=1;fontSize=13;" parent="9tRWBcBBaT76NV6u4gut-6" vertex="1">
                    <mxGeometry y="30" width="180" height="30" as="geometry"/>
                </mxCell>
                <mxCell id="9tRWBcBBaT76NV6u4gut-8" value="PK" style="shape=partialRectangle;connectable=0;fillColor=none;top=0;left=0;bottom=0;right=0;fontStyle=1;overflow=hidden;whiteSpace=wrap;html=1;fontSize=13;" parent="9tRWBcBBaT76NV6u4gut-7" vertex="1">
                    <mxGeometry width="30" height="30" as="geometry">
                        <mxRectangle width="30" height="30" as="alternateBounds"/>
                    </mxGeometry>
                </mxCell>
                <mxCell id="9tRWBcBBaT76NV6u4gut-9" value="IDcliente: int" style="shape=partialRectangle;connectable=0;fillColor=none;top=0;left=0;bottom=0;right=0;align=left;spacingLeft=6;fontStyle=5;overflow=hidden;whiteSpace=wrap;html=1;fontSize=13;" parent="9tRWBcBBaT76NV6u4gut-7" vertex="1">
                    <mxGeometry x="30" width="150" height="30" as="geometry">
                        <mxRectangle width="150" height="30" as="alternateBounds"/>
                    </mxGeometry>
                </mxCell>
                <mxCell id="RfrlllV6XKP_VL91qT2g-9" value="Medalla" style="shape=table;startSize=30;container=1;collapsible=1;childLayout=tableLayout;fixedRows=1;rowLines=0;fontStyle=1;align=center;resizeLast=1;html=1;fontSize=13;" parent="1" vertex="1">
                    <mxGeometry x="-70" y="370" width="220" height="120" as="geometry"/>
                </mxCell>
                <mxCell id="RfrlllV6XKP_VL91qT2g-10" value="" style="shape=tableRow;horizontal=0;startSize=0;swimlaneHead=0;swimlaneBody=0;fillColor=none;collapsible=0;dropTarget=0;points=[[0,0.5],[1,0.5]];portConstraint=eastwest;top=0;left=0;right=0;bottom=1;fontSize=13;" parent="RfrlllV6XKP_VL91qT2g-9" vertex="1">
                    <mxGeometry y="30" width="220" height="30" as="geometry"/>
                </mxCell>
                <mxCell id="RfrlllV6XKP_VL91qT2g-11" value="PK" style="shape=partialRectangle;connectable=0;fillColor=none;top=0;left=0;bottom=0;right=0;fontStyle=1;overflow=hidden;whiteSpace=wrap;html=1;fontSize=13;" parent="RfrlllV6XKP_VL91qT2g-10" vertex="1">
                    <mxGeometry width="30" height="30" as="geometry">
                        <mxRectangle width="30" height="30" as="alternateBounds"/>
                    </mxGeometry>
                </mxCell>
                <mxCell id="RfrlllV6XKP_VL91qT2g-12" value="TipoMedalla: varchar[(50)] " style="shape=partialRectangle;connectable=0;fillColor=none;top=0;left=0;bottom=0;right=0;align=left;spacingLeft=6;fontStyle=5;overflow=hidden;whiteSpace=wrap;html=1;fontSize=13;" parent="RfrlllV6XKP_VL91qT2g-10" vertex="1">
                    <mxGeometry x="30" width="190" height="30" as="geometry">
                        <mxRectangle width="190" height="30" as="alternateBounds"/>
                    </mxGeometry>
                </mxCell>
                <mxCell id="ndnISll9TycVntmwG7Ce-1" value="" style="shape=tableRow;horizontal=0;startSize=0;swimlaneHead=0;swimlaneBody=0;fillColor=none;collapsible=0;dropTarget=0;points=[[0,0.5],[1,0.5]];portConstraint=eastwest;top=0;left=0;right=0;bottom=1;fontSize=13;" parent="RfrlllV6XKP_VL91qT2g-9" vertex="1">
                    <mxGeometry y="60" width="220" height="30" as="geometry"/>
                </mxCell>
                <mxCell id="ndnISll9TycVntmwG7Ce-2" value="PK" style="shape=partialRectangle;connectable=0;fillColor=none;top=0;left=0;bottom=0;right=0;fontStyle=1;overflow=hidden;whiteSpace=wrap;html=1;fontSize=13;" parent="ndnISll9TycVntmwG7Ce-1" vertex="1">
                    <mxGeometry width="30" height="30" as="geometry">
                        <mxRectangle width="30" height="30" as="alternateBounds"/>
                    </mxGeometry>
                </mxCell>
                <mxCell id="ndnISll9TycVntmwG7Ce-3" value="IDDisciplina: int" style="shape=partialRectangle;connectable=0;fillColor=none;top=0;left=0;bottom=0;right=0;align=left;spacingLeft=6;fontStyle=5;overflow=hidden;whiteSpace=wrap;html=1;fontSize=13;" parent="ndnISll9TycVntmwG7Ce-1" vertex="1">
                    <mxGeometry x="30" width="190" height="30" as="geometry">
                        <mxRectangle width="190" height="30" as="alternateBounds"/>
                    </mxGeometry>
                </mxCell>
                <mxCell id="wlwj411Kuk6rDO_IyDqp-93" value="" style="shape=tableRow;horizontal=0;startSize=0;swimlaneHead=0;swimlaneBody=0;fillColor=none;collapsible=0;dropTarget=0;points=[[0,0.5],[1,0.5]];portConstraint=eastwest;top=0;left=0;right=0;bottom=0;fontSize=13;" parent="RfrlllV6XKP_VL91qT2g-9" vertex="1">
                    <mxGeometry y="90" width="220" height="30" as="geometry"/>
                </mxCell>
                <mxCell id="wlwj411Kuk6rDO_IyDqp-94" value="FK" style="shape=partialRectangle;connectable=0;fillColor=none;top=0;left=0;bottom=0;right=0;fontStyle=1;overflow=hidden;whiteSpace=wrap;html=1;fontSize=13;" parent="wlwj411Kuk6rDO_IyDqp-93" vertex="1">
                    <mxGeometry width="30" height="30" as="geometry">
                        <mxRectangle width="30" height="30" as="alternateBounds"/>
                    </mxGeometry>
                </mxCell>
                <mxCell id="wlwj411Kuk6rDO_IyDqp-95" value="IDAtleta: int" style="shape=partialRectangle;connectable=0;fillColor=none;top=0;left=0;bottom=0;right=0;align=left;spacingLeft=6;fontStyle=1;overflow=hidden;whiteSpace=wrap;html=1;fontSize=13;" parent="wlwj411Kuk6rDO_IyDqp-93" vertex="1">
                    <mxGeometry x="30" width="190" height="30" as="geometry">
                        <mxRectangle width="190" height="30" as="alternateBounds"/>
                    </mxGeometry>
                </mxCell>
                <mxCell id="RfrlllV6XKP_VL91qT2g-13" value="Participa" style="shape=table;startSize=30;container=1;collapsible=1;childLayout=tableLayout;fixedRows=1;rowLines=0;fontStyle=1;align=center;resizeLast=1;html=1;fontSize=13;" parent="1" vertex="1">
                    <mxGeometry width="180" height="90" as="geometry"/>
                </mxCell>
                <mxCell id="RfrlllV6XKP_VL91qT2g-14" value="" style="shape=tableRow;horizontal=0;startSize=0;swimlaneHead=0;swimlaneBody=0;fillColor=none;collapsible=0;dropTarget=0;points=[[0,0.5],[1,0.5]];portConstraint=eastwest;top=0;left=0;right=0;bottom=0;fontSize=13;" parent="RfrlllV6XKP_VL91qT2g-13" vertex="1">
                    <mxGeometry y="30" width="180" height="30" as="geometry"/>
                </mxCell>
                <mxCell id="RfrlllV6XKP_VL91qT2g-15" value="FK" style="shape=partialRectangle;connectable=0;fillColor=none;top=0;left=0;bottom=1;right=0;editable=1;overflow=hidden;fontStyle=1;fontSize=13;" parent="RfrlllV6XKP_VL91qT2g-14" vertex="1">
                    <mxGeometry width="30" height="30" as="geometry">
                        <mxRectangle width="30" height="30" as="alternateBounds"/>
                    </mxGeometry>
                </mxCell>
                <mxCell id="RfrlllV6XKP_VL91qT2g-16" value="IDAtleta: int" style="shape=partialRectangle;connectable=0;fillColor=none;top=0;left=0;bottom=1;right=0;align=left;spacingLeft=6;overflow=hidden;strokeWidth=1;fontStyle=1;fontSize=13;" parent="RfrlllV6XKP_VL91qT2g-14" vertex="1">
                    <mxGeometry x="30" width="150" height="30" as="geometry">
                        <mxRectangle width="150" height="30" as="alternateBounds"/>
                    </mxGeometry>
                </mxCell>
                <mxCell id="RfrlllV6XKP_VL91qT2g-17" value="" style="shape=tableRow;horizontal=0;startSize=0;swimlaneHead=0;swimlaneBody=0;fillColor=none;collapsible=0;dropTarget=0;points=[[0,0.5],[1,0.5]];portConstraint=eastwest;top=0;left=0;right=0;bottom=0;fontSize=13;" parent="RfrlllV6XKP_VL91qT2g-13" vertex="1">
                    <mxGeometry y="60" width="180" height="30" as="geometry"/>
                </mxCell>
                <mxCell id="RfrlllV6XKP_VL91qT2g-18" value="FK" style="shape=partialRectangle;connectable=0;fillColor=none;top=0;left=0;bottom=0;right=0;editable=1;overflow=hidden;fontStyle=1;fontSize=13;" parent="RfrlllV6XKP_VL91qT2g-17" vertex="1">
                    <mxGeometry width="30" height="30" as="geometry">
                        <mxRectangle width="30" height="30" as="alternateBounds"/>
                    </mxGeometry>
                </mxCell>
                <mxCell id="RfrlllV6XKP_VL91qT2g-19" value="IDDisciplina: int" style="shape=partialRectangle;connectable=0;fillColor=none;top=0;left=0;bottom=0;right=0;align=left;spacingLeft=6;overflow=hidden;fontStyle=1;fontSize=13;" parent="RfrlllV6XKP_VL91qT2g-17" vertex="1">
                    <mxGeometry x="30" width="150" height="30" as="geometry">
                        <mxRectangle width="150" height="30" as="alternateBounds"/>
                    </mxGeometry>
                </mxCell>
                <mxCell id="q2yrCnXa5M1frAqMx9y7-8" value="Patrocina" style="shape=table;startSize=30;container=1;collapsible=1;childLayout=tableLayout;fixedRows=1;rowLines=0;fontStyle=1;align=center;resizeLast=1;html=1;fontSize=13;" parent="1" vertex="1">
                    <mxGeometry x="710" y="240" width="260" height="90" as="geometry"/>
                </mxCell>
                <mxCell id="q2yrCnXa5M1frAqMx9y7-9" value="" style="shape=tableRow;horizontal=0;startSize=0;swimlaneHead=0;swimlaneBody=0;fillColor=none;collapsible=0;dropTarget=0;points=[[0,0.5],[1,0.5]];portConstraint=eastwest;top=0;left=0;right=0;bottom=0;fontSize=13;" parent="q2yrCnXa5M1frAqMx9y7-8" vertex="1">
                    <mxGeometry y="30" width="260" height="30" as="geometry"/>
                </mxCell>
                <mxCell id="q2yrCnXa5M1frAqMx9y7-10" value="FK" style="shape=partialRectangle;connectable=0;fillColor=none;top=0;left=0;bottom=1;right=0;editable=1;overflow=hidden;fontStyle=1;fontSize=13;" parent="q2yrCnXa5M1frAqMx9y7-9" vertex="1">
                    <mxGeometry width="30" height="30" as="geometry">
                        <mxRectangle width="30" height="30" as="alternateBounds"/>
                    </mxGeometry>
                </mxCell>
                <mxCell id="q2yrCnXa5M1frAqMx9y7-11" value="NombrePatrocinador: varchar[(50)]" style="shape=partialRectangle;connectable=0;fillColor=none;top=0;left=0;bottom=1;right=0;align=left;spacingLeft=6;overflow=hidden;strokeWidth=1;fontStyle=1;fontSize=13;" parent="q2yrCnXa5M1frAqMx9y7-9" vertex="1">
                    <mxGeometry x="30" width="230" height="30" as="geometry">
                        <mxRectangle width="230" height="30" as="alternateBounds"/>
                    </mxGeometry>
                </mxCell>
                <mxCell id="q2yrCnXa5M1frAqMx9y7-12" value="" style="shape=tableRow;horizontal=0;startSize=0;swimlaneHead=0;swimlaneBody=0;fillColor=none;collapsible=0;dropTarget=0;points=[[0,0.5],[1,0.5]];portConstraint=eastwest;top=0;left=0;right=0;bottom=0;fontStyle=1;fontSize=13;" parent="q2yrCnXa5M1frAqMx9y7-8" vertex="1">
                    <mxGeometry y="60" width="260" height="30" as="geometry"/>
                </mxCell>
                <mxCell id="q2yrCnXa5M1frAqMx9y7-13" value="FK" style="shape=partialRectangle;connectable=0;fillColor=none;top=0;left=0;bottom=0;right=0;editable=1;overflow=hidden;fontStyle=1;fontSize=13;" parent="q2yrCnXa5M1frAqMx9y7-12" vertex="1">
                    <mxGeometry width="30" height="30" as="geometry">
                        <mxRectangle width="30" height="30" as="alternateBounds"/>
                    </mxGeometry>
                </mxCell>
                <mxCell id="q2yrCnXa5M1frAqMx9y7-14" value="IDDisciplina: int" style="shape=partialRectangle;connectable=0;fillColor=none;top=0;left=0;bottom=0;right=0;align=left;spacingLeft=6;overflow=hidden;fontStyle=1;fontSize=13;" parent="q2yrCnXa5M1frAqMx9y7-12" vertex="1">
                    <mxGeometry x="30" width="230" height="30" as="geometry">
                        <mxRectangle width="230" height="30" as="alternateBounds"/>
                    </mxGeometry>
                </mxCell>
                <mxCell id="RfrlllV6XKP_VL91qT2g-21" value="CompraEntrada" style="shape=table;startSize=30;container=1;collapsible=1;childLayout=tableLayout;fixedRows=1;rowLines=0;fontStyle=1;align=center;resizeLast=1;html=1;fontSize=13;" parent="1" vertex="1">
                    <mxGeometry x="170" y="760" width="180" height="90" as="geometry"/>
                </mxCell>
                <mxCell id="RfrlllV6XKP_VL91qT2g-22" value="" style="shape=tableRow;horizontal=0;startSize=0;swimlaneHead=0;swimlaneBody=0;fillColor=none;collapsible=0;dropTarget=0;points=[[0,0.5],[1,0.5]];portConstraint=eastwest;top=0;left=0;right=0;bottom=0;fontSize=13;" parent="RfrlllV6XKP_VL91qT2g-21" vertex="1">
                    <mxGeometry y="30" width="180" height="30" as="geometry"/>
                </mxCell>
                <mxCell id="RfrlllV6XKP_VL91qT2g-23" value="FK" style="shape=partialRectangle;connectable=0;fillColor=none;top=0;left=0;bottom=1;right=0;editable=1;overflow=hidden;fontStyle=1;fontSize=13;" parent="RfrlllV6XKP_VL91qT2g-22" vertex="1">
                    <mxGeometry width="30" height="30" as="geometry">
                        <mxRectangle width="30" height="30" as="alternateBounds"/>
                    </mxGeometry>
                </mxCell>
                <mxCell id="RfrlllV6XKP_VL91qT2g-24" value="IDCliente: int" style="shape=partialRectangle;connectable=0;fillColor=none;top=0;left=0;bottom=1;right=0;align=left;spacingLeft=6;overflow=hidden;strokeWidth=1;fontStyle=1;fontSize=13;" parent="RfrlllV6XKP_VL91qT2g-22" vertex="1">
                    <mxGeometry x="30" width="150" height="30" as="geometry">
                        <mxRectangle width="150" height="30" as="alternateBounds"/>
                    </mxGeometry>
                </mxCell>
                <mxCell id="RfrlllV6XKP_VL91qT2g-25" value="" style="shape=tableRow;horizontal=0;startSize=0;swimlaneHead=0;swimlaneBody=0;fillColor=none;collapsible=0;dropTarget=0;points=[[0,0.5],[1,0.5]];portConstraint=eastwest;top=0;left=0;right=0;bottom=0;fontSize=13;" parent="RfrlllV6XKP_VL91qT2g-21" vertex="1">
                    <mxGeometry y="60" width="180" height="30" as="geometry"/>
                </mxCell>
                <mxCell id="RfrlllV6XKP_VL91qT2g-26" value="FK" style="shape=partialRectangle;connectable=0;fillColor=none;top=0;left=0;bottom=0;right=0;editable=1;overflow=hidden;fontStyle=1;fontSize=13;" parent="RfrlllV6XKP_VL91qT2g-25" vertex="1">
                    <mxGeometry width="30" height="30" as="geometry">
                        <mxRectangle width="30" height="30" as="alternateBounds"/>
                    </mxGeometry>
                </mxCell>
                <mxCell id="RfrlllV6XKP_VL91qT2g-27" value="IDEvento: int" style="shape=partialRectangle;connectable=0;fillColor=none;top=0;left=0;bottom=0;right=0;align=left;spacingLeft=6;overflow=hidden;fontStyle=1;fontSize=13;" parent="RfrlllV6XKP_VL91qT2g-25" vertex="1">
                    <mxGeometry x="30" width="150" height="30" as="geometry">
                        <mxRectangle width="150" height="30" as="alternateBounds"/>
                    </mxGeometry>
                </mxCell>
                <mxCell id="q2yrCnXa5M1frAqMx9y7-15" value="Concursa" style="shape=table;startSize=30;container=1;collapsible=1;childLayout=tableLayout;fixedRows=1;rowLines=0;fontStyle=1;align=center;resizeLast=1;html=1;fontSize=13;" parent="1" vertex="1">
                    <mxGeometry x="-580" y="510" width="180" height="90" as="geometry"/>
                </mxCell>
                <mxCell id="q2yrCnXa5M1frAqMx9y7-16" value="" style="shape=tableRow;horizontal=0;startSize=0;swimlaneHead=0;swimlaneBody=0;fillColor=none;collapsible=0;dropTarget=0;points=[[0,0.5],[1,0.5]];portConstraint=eastwest;top=0;left=0;right=0;bottom=1;separatorColor=none;fontStyle=1;fontSize=13;" parent="q2yrCnXa5M1frAqMx9y7-15" vertex="1">
                    <mxGeometry y="30" width="180" height="30" as="geometry"/>
                </mxCell>
                <mxCell id="q2yrCnXa5M1frAqMx9y7-17" value="FK" style="shape=partialRectangle;connectable=0;fillColor=none;top=0;left=0;bottom=1;right=0;editable=1;overflow=hidden;strokeWidth=0;fontStyle=1;fontSize=13;" parent="q2yrCnXa5M1frAqMx9y7-16" vertex="1">
                    <mxGeometry width="30" height="30" as="geometry">
                        <mxRectangle width="30" height="30" as="alternateBounds"/>
                    </mxGeometry>
                </mxCell>
                <mxCell id="q2yrCnXa5M1frAqMx9y7-18" value="IDAtleta: int" style="shape=partialRectangle;connectable=0;fillColor=none;top=0;left=0;bottom=1;right=0;align=left;spacingLeft=6;overflow=hidden;strokeWidth=0;fontStyle=1;fontSize=13;" parent="q2yrCnXa5M1frAqMx9y7-16" vertex="1">
                    <mxGeometry x="30" width="150" height="30" as="geometry">
                        <mxRectangle width="150" height="30" as="alternateBounds"/>
                    </mxGeometry>
                </mxCell>
                <mxCell id="q2yrCnXa5M1frAqMx9y7-19" value="" style="shape=tableRow;horizontal=0;startSize=0;swimlaneHead=0;swimlaneBody=0;fillColor=none;collapsible=0;dropTarget=0;points=[[0,0.5],[1,0.5]];portConstraint=eastwest;top=0;left=0;right=0;bottom=0;fontSize=13;" parent="q2yrCnXa5M1frAqMx9y7-15" vertex="1">
                    <mxGeometry y="60" width="180" height="30" as="geometry"/>
                </mxCell>
                <mxCell id="q2yrCnXa5M1frAqMx9y7-20" value="FK" style="shape=partialRectangle;connectable=0;fillColor=none;top=0;left=0;bottom=0;right=0;editable=1;overflow=hidden;fontStyle=1;fontSize=13;" parent="q2yrCnXa5M1frAqMx9y7-19" vertex="1">
                    <mxGeometry width="30" height="30" as="geometry">
                        <mxRectangle width="30" height="30" as="alternateBounds"/>
                    </mxGeometry>
                </mxCell>
                <mxCell id="q2yrCnXa5M1frAqMx9y7-21" value="IDEvento: int" style="shape=partialRectangle;connectable=0;fillColor=none;top=0;left=0;bottom=0;right=0;align=left;spacingLeft=6;overflow=hidden;fontStyle=1;fontSize=13;" parent="q2yrCnXa5M1frAqMx9y7-19" vertex="1">
                    <mxGeometry x="30" width="150" height="30" as="geometry">
                        <mxRectangle width="150" height="30" as="alternateBounds"/>
                    </mxGeometry>
                </mxCell>
                <mxCell id="LZco95R0kcnfF2moG8rG-1" value="" style="edgeStyle=entityRelationEdgeStyle;fontSize=13;html=1;endArrow=ERoneToMany;startArrow=ERmandOne;rounded=0;entryX=0;entryY=0.5;entryDx=0;entryDy=0;strokeWidth=2;fillColor=#b1ddf0;strokeColor=#10739e;exitX=1.002;exitY=0.884;exitDx=0;exitDy=0;exitPerimeter=0;startFill=0;" parent="1" source="cqkPvYUDdSKqJvLp3jxx-16" target="q2yrCnXa5M1frAqMx9y7-12" edge="1">
                    <mxGeometry width="100" height="100" relative="1" as="geometry">
                        <mxPoint x="570" y="310" as="sourcePoint"/>
                        <mxPoint x="740" y="110" as="targetPoint"/>
                    </mxGeometry>
                </mxCell>
                <mxCell id="LZco95R0kcnfF2moG8rG-2" value="" style="edgeStyle=entityRelationEdgeStyle;fontSize=13;html=1;endArrow=ERmandOne;startArrow=ERoneToMany;rounded=0;exitX=1;exitY=0.5;exitDx=0;exitDy=0;entryX=0;entryY=0.5;entryDx=0;entryDy=0;strokeWidth=2;endFill=0;fillColor=#d80073;strokeColor=#A50040;" parent="1" source="q2yrCnXa5M1frAqMx9y7-9" target="cqkPvYUDdSKqJvLp3jxx-45" edge="1">
                    <mxGeometry width="100" height="100" relative="1" as="geometry">
                        <mxPoint x="880" y="295" as="sourcePoint"/>
                        <mxPoint x="1060" y="320" as="targetPoint"/>
                    </mxGeometry>
                </mxCell>
                <mxCell id="wlwj411Kuk6rDO_IyDqp-23" value="TeléfonoAtleta" style="shape=table;startSize=30;container=1;collapsible=1;childLayout=tableLayout;fixedRows=1;rowLines=0;fontStyle=1;align=center;resizeLast=1;html=1;fontSize=13;" parent="1" vertex="1">
                    <mxGeometry x="-400" y="-502.5" width="180" height="80" as="geometry"/>
                </mxCell>
                <mxCell id="wlwj411Kuk6rDO_IyDqp-24" value="" style="shape=tableRow;horizontal=0;startSize=0;swimlaneHead=0;swimlaneBody=0;fillColor=none;collapsible=0;dropTarget=0;points=[[0,0.5],[1,0.5]];portConstraint=eastwest;top=0;left=0;right=0;bottom=1;fontSize=13;" parent="wlwj411Kuk6rDO_IyDqp-23" vertex="1">
                    <mxGeometry y="30" width="180" height="30" as="geometry"/>
                </mxCell>
                <mxCell id="wlwj411Kuk6rDO_IyDqp-25" value="PK" style="shape=partialRectangle;connectable=0;fillColor=none;top=0;left=0;bottom=0;right=0;fontStyle=1;overflow=hidden;whiteSpace=wrap;html=1;fontSize=13;" parent="wlwj411Kuk6rDO_IyDqp-24" vertex="1">
                    <mxGeometry width="30" height="30" as="geometry">
                        <mxRectangle width="30" height="30" as="alternateBounds"/>
                    </mxGeometry>
                </mxCell>
                <mxCell id="wlwj411Kuk6rDO_IyDqp-26" value="IDTeléfono:&amp;nbsp;varchar(15)" style="shape=partialRectangle;connectable=0;fillColor=none;top=0;left=0;bottom=0;right=0;align=left;spacingLeft=6;fontStyle=5;overflow=hidden;whiteSpace=wrap;html=1;fontSize=13;" parent="wlwj411Kuk6rDO_IyDqp-24" vertex="1">
                    <mxGeometry x="30" width="150" height="30" as="geometry">
                        <mxRectangle width="150" height="30" as="alternateBounds"/>
                    </mxGeometry>
                </mxCell>
                <mxCell id="LZco95R0kcnfF2moG8rG-3" value="" style="shape=tableRow;horizontal=0;startSize=0;swimlaneHead=0;swimlaneBody=0;fillColor=none;collapsible=0;dropTarget=0;points=[[0,0.5],[1,0.5]];portConstraint=eastwest;top=0;left=0;right=0;bottom=1;fontSize=13;" parent="wlwj411Kuk6rDO_IyDqp-23" vertex="1">
                    <mxGeometry y="60" width="180" height="20" as="geometry"/>
                </mxCell>
                <mxCell id="LZco95R0kcnfF2moG8rG-4" value="PK" style="shape=partialRectangle;connectable=0;fillColor=none;top=0;left=0;bottom=0;right=0;fontStyle=1;overflow=hidden;whiteSpace=wrap;html=1;fontSize=13;" parent="LZco95R0kcnfF2moG8rG-3" vertex="1">
                    <mxGeometry width="30" height="20" as="geometry">
                        <mxRectangle width="30" height="20" as="alternateBounds"/>
                    </mxGeometry>
                </mxCell>
                <mxCell id="LZco95R0kcnfF2moG8rG-5" value="IDAtleta: int" style="shape=partialRectangle;connectable=0;fillColor=none;top=0;left=0;bottom=0;right=0;align=left;spacingLeft=6;fontStyle=5;overflow=hidden;whiteSpace=wrap;html=1;fontSize=13;" parent="LZco95R0kcnfF2moG8rG-3" vertex="1">
                    <mxGeometry x="30" width="150" height="20" as="geometry">
                        <mxRectangle width="150" height="20" as="alternateBounds"/>
                    </mxGeometry>
                </mxCell>
                <mxCell id="wlwj411Kuk6rDO_IyDqp-33" value="CorreoAtleta" style="shape=table;startSize=30;container=1;collapsible=1;childLayout=tableLayout;fixedRows=1;rowLines=0;fontStyle=1;align=center;resizeLast=1;html=1;fontSize=13;" parent="1" vertex="1">
                    <mxGeometry x="-80" y="-590" width="180" height="80" as="geometry"/>
                </mxCell>
                <mxCell id="wlwj411Kuk6rDO_IyDqp-34" value="" style="shape=tableRow;horizontal=0;startSize=0;swimlaneHead=0;swimlaneBody=0;fillColor=none;collapsible=0;dropTarget=0;points=[[0,0.5],[1,0.5]];portConstraint=eastwest;top=0;left=0;right=0;bottom=1;fontSize=13;" parent="wlwj411Kuk6rDO_IyDqp-33" vertex="1">
                    <mxGeometry y="30" width="180" height="30" as="geometry"/>
                </mxCell>
                <mxCell id="wlwj411Kuk6rDO_IyDqp-35" value="PK" style="shape=partialRectangle;connectable=0;fillColor=none;top=0;left=0;bottom=0;right=0;fontStyle=1;overflow=hidden;whiteSpace=wrap;html=1;fontSize=13;" parent="wlwj411Kuk6rDO_IyDqp-34" vertex="1">
                    <mxGeometry width="30" height="30" as="geometry">
                        <mxRectangle width="30" height="30" as="alternateBounds"/>
                    </mxGeometry>
                </mxCell>
                <mxCell id="wlwj411Kuk6rDO_IyDqp-36" value="IDCorreo: varChar(50)" style="shape=partialRectangle;connectable=0;fillColor=none;top=0;left=0;bottom=0;right=0;align=left;spacingLeft=6;fontStyle=5;overflow=hidden;whiteSpace=wrap;html=1;fontSize=13;" parent="wlwj411Kuk6rDO_IyDqp-34" vertex="1">
                    <mxGeometry x="30" width="150" height="30" as="geometry">
                        <mxRectangle width="150" height="30" as="alternateBounds"/>
                    </mxGeometry>
                </mxCell>
                <mxCell id="wlwj411Kuk6rDO_IyDqp-37" value="" style="shape=tableRow;horizontal=0;startSize=0;swimlaneHead=0;swimlaneBody=0;fillColor=none;collapsible=0;dropTarget=0;points=[[0,0.5],[1,0.5]];portConstraint=eastwest;top=0;left=0;right=0;bottom=1;fontSize=13;" parent="wlwj411Kuk6rDO_IyDqp-33" vertex="1">
                    <mxGeometry y="60" width="180" height="20" as="geometry"/>
                </mxCell>
                <mxCell id="wlwj411Kuk6rDO_IyDqp-38" value="PK" style="shape=partialRectangle;connectable=0;fillColor=none;top=0;left=0;bottom=0;right=0;fontStyle=1;overflow=hidden;whiteSpace=wrap;html=1;fontSize=13;" parent="wlwj411Kuk6rDO_IyDqp-37" vertex="1">
                    <mxGeometry width="30" height="20" as="geometry">
                        <mxRectangle width="30" height="20" as="alternateBounds"/>
                    </mxGeometry>
                </mxCell>
                <mxCell id="wlwj411Kuk6rDO_IyDqp-39" value="IDAtleta: int" style="shape=partialRectangle;connectable=0;fillColor=none;top=0;left=0;bottom=0;right=0;align=left;spacingLeft=6;fontStyle=5;overflow=hidden;whiteSpace=wrap;html=1;fontSize=13;" parent="wlwj411Kuk6rDO_IyDqp-37" vertex="1">
                    <mxGeometry x="30" width="150" height="20" as="geometry">
                        <mxRectangle width="150" height="20" as="alternateBounds"/>
                    </mxGeometry>
                </mxCell>
                <mxCell id="wlwj411Kuk6rDO_IyDqp-50" value="TeléfonoEntrenador" style="shape=table;startSize=30;container=1;collapsible=1;childLayout=tableLayout;fixedRows=1;rowLines=0;fontStyle=1;align=center;resizeLast=1;html=1;fontSize=13;" parent="1" vertex="1">
                    <mxGeometry x="210" y="-620" width="200" height="80" as="geometry"/>
                </mxCell>
                <mxCell id="wlwj411Kuk6rDO_IyDqp-51" value="" style="shape=tableRow;horizontal=0;startSize=0;swimlaneHead=0;swimlaneBody=0;fillColor=none;collapsible=0;dropTarget=0;points=[[0,0.5],[1,0.5]];portConstraint=eastwest;top=0;left=0;right=0;bottom=1;fontSize=13;" parent="wlwj411Kuk6rDO_IyDqp-50" vertex="1">
                    <mxGeometry y="30" width="200" height="30" as="geometry"/>
                </mxCell>
                <mxCell id="wlwj411Kuk6rDO_IyDqp-52" value="PK" style="shape=partialRectangle;connectable=0;fillColor=none;top=0;left=0;bottom=0;right=0;fontStyle=1;overflow=hidden;whiteSpace=wrap;html=1;fontSize=13;" parent="wlwj411Kuk6rDO_IyDqp-51" vertex="1">
                    <mxGeometry width="30" height="30" as="geometry">
                        <mxRectangle width="30" height="30" as="alternateBounds"/>
                    </mxGeometry>
                </mxCell>
                <mxCell id="wlwj411Kuk6rDO_IyDqp-53" value="IDTeléfono:&amp;nbsp;varchar(15)" style="shape=partialRectangle;connectable=0;fillColor=none;top=0;left=0;bottom=0;right=0;align=left;spacingLeft=6;fontStyle=5;overflow=hidden;whiteSpace=wrap;html=1;fontSize=13;" parent="wlwj411Kuk6rDO_IyDqp-51" vertex="1">
                    <mxGeometry x="30" width="170" height="30" as="geometry">
                        <mxRectangle width="170" height="30" as="alternateBounds"/>
                    </mxGeometry>
                </mxCell>
                <mxCell id="wlwj411Kuk6rDO_IyDqp-54" value="" style="shape=tableRow;horizontal=0;startSize=0;swimlaneHead=0;swimlaneBody=0;fillColor=none;collapsible=0;dropTarget=0;points=[[0,0.5],[1,0.5]];portConstraint=eastwest;top=0;left=0;right=0;bottom=1;fontSize=13;" parent="wlwj411Kuk6rDO_IyDqp-50" vertex="1">
                    <mxGeometry y="60" width="200" height="20" as="geometry"/>
                </mxCell>
                <mxCell id="wlwj411Kuk6rDO_IyDqp-55" value="PK" style="shape=partialRectangle;connectable=0;fillColor=none;top=0;left=0;bottom=0;right=0;fontStyle=1;overflow=hidden;whiteSpace=wrap;html=1;fontSize=13;" parent="wlwj411Kuk6rDO_IyDqp-54" vertex="1">
                    <mxGeometry width="30" height="20" as="geometry">
                        <mxRectangle width="30" height="20" as="alternateBounds"/>
                    </mxGeometry>
                </mxCell>
                <mxCell id="wlwj411Kuk6rDO_IyDqp-56" value="IDEntrenador: int" style="shape=partialRectangle;connectable=0;fillColor=none;top=0;left=0;bottom=0;right=0;align=left;spacingLeft=6;fontStyle=5;overflow=hidden;whiteSpace=wrap;html=1;fontSize=13;" parent="wlwj411Kuk6rDO_IyDqp-54" vertex="1">
                    <mxGeometry x="30" width="170" height="20" as="geometry">
                        <mxRectangle width="170" height="20" as="alternateBounds"/>
                    </mxGeometry>
                </mxCell>
                <mxCell id="wlwj411Kuk6rDO_IyDqp-57" value="CorreoEntrenador" style="shape=table;startSize=30;container=1;collapsible=1;childLayout=tableLayout;fixedRows=1;rowLines=0;fontStyle=1;align=center;resizeLast=1;html=1;fontSize=13;" parent="1" vertex="1">
                    <mxGeometry x="540" y="-600" width="200" height="80" as="geometry"/>
                </mxCell>
                <mxCell id="wlwj411Kuk6rDO_IyDqp-58" value="" style="shape=tableRow;horizontal=0;startSize=0;swimlaneHead=0;swimlaneBody=0;fillColor=none;collapsible=0;dropTarget=0;points=[[0,0.5],[1,0.5]];portConstraint=eastwest;top=0;left=0;right=0;bottom=1;fontSize=13;" parent="wlwj411Kuk6rDO_IyDqp-57" vertex="1">
                    <mxGeometry y="30" width="200" height="30" as="geometry"/>
                </mxCell>
                <mxCell id="wlwj411Kuk6rDO_IyDqp-59" value="PK" style="shape=partialRectangle;connectable=0;fillColor=none;top=0;left=0;bottom=0;right=0;fontStyle=1;overflow=hidden;whiteSpace=wrap;html=1;fontSize=13;" parent="wlwj411Kuk6rDO_IyDqp-58" vertex="1">
                    <mxGeometry width="30" height="30" as="geometry">
                        <mxRectangle width="30" height="30" as="alternateBounds"/>
                    </mxGeometry>
                </mxCell>
                <mxCell id="wlwj411Kuk6rDO_IyDqp-60" value="IDCorreo: varChar [50]" style="shape=partialRectangle;connectable=0;fillColor=none;top=0;left=0;bottom=0;right=0;align=left;spacingLeft=6;fontStyle=5;overflow=hidden;whiteSpace=wrap;html=1;fontSize=13;" parent="wlwj411Kuk6rDO_IyDqp-58" vertex="1">
                    <mxGeometry x="30" width="170" height="30" as="geometry">
                        <mxRectangle width="170" height="30" as="alternateBounds"/>
                    </mxGeometry>
                </mxCell>
                <mxCell id="wlwj411Kuk6rDO_IyDqp-61" value="" style="shape=tableRow;horizontal=0;startSize=0;swimlaneHead=0;swimlaneBody=0;fillColor=none;collapsible=0;dropTarget=0;points=[[0,0.5],[1,0.5]];portConstraint=eastwest;top=0;left=0;right=0;bottom=1;fontSize=13;" parent="wlwj411Kuk6rDO_IyDqp-57" vertex="1">
                    <mxGeometry y="60" width="200" height="20" as="geometry"/>
                </mxCell>
                <mxCell id="wlwj411Kuk6rDO_IyDqp-62" value="PK" style="shape=partialRectangle;connectable=0;fillColor=none;top=0;left=0;bottom=0;right=0;fontStyle=1;overflow=hidden;whiteSpace=wrap;html=1;fontSize=13;" parent="wlwj411Kuk6rDO_IyDqp-61" vertex="1">
                    <mxGeometry width="30" height="20" as="geometry">
                        <mxRectangle width="30" height="20" as="alternateBounds"/>
                    </mxGeometry>
                </mxCell>
                <mxCell id="wlwj411Kuk6rDO_IyDqp-63" value="IDEntrenador: int" style="shape=partialRectangle;connectable=0;fillColor=none;top=0;left=0;bottom=0;right=0;align=left;spacingLeft=6;fontStyle=5;overflow=hidden;whiteSpace=wrap;html=1;fontSize=13;" parent="wlwj411Kuk6rDO_IyDqp-61" vertex="1">
                    <mxGeometry x="30" width="170" height="20" as="geometry">
                        <mxRectangle width="170" height="20" as="alternateBounds"/>
                    </mxGeometry>
                </mxCell>
                <mxCell id="wlwj411Kuk6rDO_IyDqp-64" value="TeléfonoArbitro" style="shape=table;startSize=30;container=1;collapsible=1;childLayout=tableLayout;fixedRows=1;rowLines=0;fontStyle=1;align=center;resizeLast=1;html=1;fontSize=13;" parent="1" vertex="1">
                    <mxGeometry x="820" y="-600" width="180" height="80" as="geometry"/>
                </mxCell>
                <mxCell id="wlwj411Kuk6rDO_IyDqp-65" value="" style="shape=tableRow;horizontal=0;startSize=0;swimlaneHead=0;swimlaneBody=0;fillColor=none;collapsible=0;dropTarget=0;points=[[0,0.5],[1,0.5]];portConstraint=eastwest;top=0;left=0;right=0;bottom=1;fontSize=13;" parent="wlwj411Kuk6rDO_IyDqp-64" vertex="1">
                    <mxGeometry y="30" width="180" height="30" as="geometry"/>
                </mxCell>
                <mxCell id="wlwj411Kuk6rDO_IyDqp-66" value="PK" style="shape=partialRectangle;connectable=0;fillColor=none;top=0;left=0;bottom=0;right=0;fontStyle=1;overflow=hidden;whiteSpace=wrap;html=1;fontSize=13;" parent="wlwj411Kuk6rDO_IyDqp-65" vertex="1">
                    <mxGeometry width="30" height="30" as="geometry">
                        <mxRectangle width="30" height="30" as="alternateBounds"/>
                    </mxGeometry>
                </mxCell>
                <mxCell id="wlwj411Kuk6rDO_IyDqp-67" value="IDTeléfono:&amp;nbsp;varchar(15)" style="shape=partialRectangle;connectable=0;fillColor=none;top=0;left=0;bottom=0;right=0;align=left;spacingLeft=6;fontStyle=5;overflow=hidden;whiteSpace=wrap;html=1;fontSize=13;" parent="wlwj411Kuk6rDO_IyDqp-65" vertex="1">
                    <mxGeometry x="30" width="150" height="30" as="geometry">
                        <mxRectangle width="150" height="30" as="alternateBounds"/>
                    </mxGeometry>
                </mxCell>
                <mxCell id="wlwj411Kuk6rDO_IyDqp-68" value="" style="shape=tableRow;horizontal=0;startSize=0;swimlaneHead=0;swimlaneBody=0;fillColor=none;collapsible=0;dropTarget=0;points=[[0,0.5],[1,0.5]];portConstraint=eastwest;top=0;left=0;right=0;bottom=1;fontSize=13;" parent="wlwj411Kuk6rDO_IyDqp-64" vertex="1">
                    <mxGeometry y="60" width="180" height="20" as="geometry"/>
                </mxCell>
                <mxCell id="wlwj411Kuk6rDO_IyDqp-69" value="PK" style="shape=partialRectangle;connectable=0;fillColor=none;top=0;left=0;bottom=0;right=0;fontStyle=1;overflow=hidden;whiteSpace=wrap;html=1;fontSize=13;" parent="wlwj411Kuk6rDO_IyDqp-68" vertex="1">
                    <mxGeometry width="30" height="20" as="geometry">
                        <mxRectangle width="30" height="20" as="alternateBounds"/>
                    </mxGeometry>
                </mxCell>
                <mxCell id="wlwj411Kuk6rDO_IyDqp-70" value="IDArbitro: int" style="shape=partialRectangle;connectable=0;fillColor=none;top=0;left=0;bottom=0;right=0;align=left;spacingLeft=6;fontStyle=5;overflow=hidden;whiteSpace=wrap;html=1;fontSize=13;" parent="wlwj411Kuk6rDO_IyDqp-68" vertex="1">
                    <mxGeometry x="30" width="150" height="20" as="geometry">
                        <mxRectangle width="150" height="20" as="alternateBounds"/>
                    </mxGeometry>
                </mxCell>
                <mxCell id="wlwj411Kuk6rDO_IyDqp-71" value="CorreoArbitro" style="shape=table;startSize=30;container=1;collapsible=1;childLayout=tableLayout;fixedRows=1;rowLines=0;fontStyle=1;align=center;resizeLast=1;html=1;fontSize=13;" parent="1" vertex="1">
                    <mxGeometry x="1080" y="-510" width="180" height="80" as="geometry"/>
                </mxCell>
                <mxCell id="wlwj411Kuk6rDO_IyDqp-72" value="" style="shape=tableRow;horizontal=0;startSize=0;swimlaneHead=0;swimlaneBody=0;fillColor=none;collapsible=0;dropTarget=0;points=[[0,0.5],[1,0.5]];portConstraint=eastwest;top=0;left=0;right=0;bottom=1;fontSize=13;" parent="wlwj411Kuk6rDO_IyDqp-71" vertex="1">
                    <mxGeometry y="30" width="180" height="30" as="geometry"/>
                </mxCell>
                <mxCell id="wlwj411Kuk6rDO_IyDqp-73" value="PK" style="shape=partialRectangle;connectable=0;fillColor=none;top=0;left=0;bottom=0;right=0;fontStyle=1;overflow=hidden;whiteSpace=wrap;html=1;fontSize=13;" parent="wlwj411Kuk6rDO_IyDqp-72" vertex="1">
                    <mxGeometry width="30" height="30" as="geometry">
                        <mxRectangle width="30" height="30" as="alternateBounds"/>
                    </mxGeometry>
                </mxCell>
                <mxCell id="wlwj411Kuk6rDO_IyDqp-74" value="IDCorreo: varChar [50]" style="shape=partialRectangle;connectable=0;fillColor=none;top=0;left=0;bottom=0;right=0;align=left;spacingLeft=6;fontStyle=5;overflow=hidden;whiteSpace=wrap;html=1;fontSize=13;" parent="wlwj411Kuk6rDO_IyDqp-72" vertex="1">
                    <mxGeometry x="30" width="150" height="30" as="geometry">
                        <mxRectangle width="150" height="30" as="alternateBounds"/>
                    </mxGeometry>
                </mxCell>
                <mxCell id="wlwj411Kuk6rDO_IyDqp-75" value="" style="shape=tableRow;horizontal=0;startSize=0;swimlaneHead=0;swimlaneBody=0;fillColor=none;collapsible=0;dropTarget=0;points=[[0,0.5],[1,0.5]];portConstraint=eastwest;top=0;left=0;right=0;bottom=1;fontSize=13;" parent="wlwj411Kuk6rDO_IyDqp-71" vertex="1">
                    <mxGeometry y="60" width="180" height="20" as="geometry"/>
                </mxCell>
                <mxCell id="wlwj411Kuk6rDO_IyDqp-76" value="PK" style="shape=partialRectangle;connectable=0;fillColor=none;top=0;left=0;bottom=0;right=0;fontStyle=1;overflow=hidden;whiteSpace=wrap;html=1;fontSize=13;" parent="wlwj411Kuk6rDO_IyDqp-75" vertex="1">
                    <mxGeometry width="30" height="20" as="geometry">
                        <mxRectangle width="30" height="20" as="alternateBounds"/>
                    </mxGeometry>
                </mxCell>
                <mxCell id="wlwj411Kuk6rDO_IyDqp-77" value="IDArbitro: int" style="shape=partialRectangle;connectable=0;fillColor=none;top=0;left=0;bottom=0;right=0;align=left;spacingLeft=6;fontStyle=5;overflow=hidden;whiteSpace=wrap;html=1;fontSize=13;" parent="wlwj411Kuk6rDO_IyDqp-75" vertex="1">
                    <mxGeometry x="30" width="150" height="20" as="geometry">
                        <mxRectangle width="150" height="20" as="alternateBounds"/>
                    </mxGeometry>
                </mxCell>
                <mxCell id="wlwj411Kuk6rDO_IyDqp-78" value="" style="edgeStyle=elbowEdgeStyle;fontSize=13;html=1;endArrow=ERoneToMany;startArrow=ERzeroToOne;rounded=0;exitX=0;exitY=0.167;exitDx=0;exitDy=0;entryX=1;entryY=0.5;entryDx=0;entryDy=0;strokeWidth=2;fillColor=#f8cecc;strokeColor=#b85450;exitPerimeter=0;" parent="1" source="8CGQNzVvqwp2ry-6FXMm-37" target="LZco95R0kcnfF2moG8rG-3" edge="1">
                    <mxGeometry width="100" height="100" relative="1" as="geometry">
                        <mxPoint x="270" y="-300" as="sourcePoint"/>
                        <mxPoint x="370" y="-400" as="targetPoint"/>
                        <Array as="points">
                            <mxPoint x="-140" y="-420"/>
                        </Array>
                    </mxGeometry>
                </mxCell>
                <mxCell id="q2yrCnXa5M1frAqMx9y7-41" value="" style="edgeStyle=orthogonalEdgeStyle;fontSize=13;html=1;endArrow=ERoneToMany;startArrow=ERzeroToOne;rounded=0;exitX=0;exitY=0.5;exitDx=0;exitDy=0;entryX=1;entryY=0.5;entryDx=0;entryDy=0;strokeWidth=2;fillColor=#e1d5e7;strokeColor=#9673a6;" parent="1" source="36T4z24LOP3LeD5Vtb74-139" target="wlwj411Kuk6rDO_IyDqp-54" edge="1">
                    <mxGeometry width="100" height="100" relative="1" as="geometry">
                        <mxPoint x="345" y="-402.5" as="sourcePoint"/>
                        <mxPoint x="460" y="-520" as="targetPoint"/>
                    </mxGeometry>
                </mxCell>
                <mxCell id="RfrlllV6XKP_VL91qT2g-34" value="" style="edgeStyle=elbowEdgeStyle;fontSize=13;html=1;endArrow=ERzeroToOne;startArrow=ERoneToMany;rounded=0;strokeColor=#432D57;exitX=0;exitY=0.5;exitDx=0;exitDy=0;fillColor=#76608a;strokeWidth=2;endFill=0;entryX=-0.004;entryY=0.38;entryDx=0;entryDy=0;entryPerimeter=0;" parent="1" source="RfrlllV6XKP_VL91qT2g-13" target="8CGQNzVvqwp2ry-6FXMm-37" edge="1">
                    <mxGeometry width="100" height="100" relative="1" as="geometry">
                        <mxPoint x="-90" y="45" as="sourcePoint"/>
                        <mxPoint y="-380" as="targetPoint"/>
                        <Array as="points">
                            <mxPoint x="-70" y="-170"/>
                        </Array>
                    </mxGeometry>
                </mxCell>
                <mxCell id="wlwj411Kuk6rDO_IyDqp-79" value="" style="edgeStyle=elbowEdgeStyle;fontSize=13;html=1;endArrow=ERoneToMany;startArrow=ERzeroToOne;rounded=0;entryX=0;entryY=0.5;entryDx=0;entryDy=0;strokeWidth=2;fillColor=#f8cecc;strokeColor=#b85450;" parent="1" target="wlwj411Kuk6rDO_IyDqp-37" edge="1">
                    <mxGeometry width="100" height="100" relative="1" as="geometry">
                        <mxPoint x="-10" y="-400" as="sourcePoint"/>
                        <mxPoint x="-90" y="-405" as="targetPoint"/>
                        <Array as="points">
                            <mxPoint x="-120" y="-460"/>
                        </Array>
                    </mxGeometry>
                </mxCell>
                <mxCell id="q2yrCnXa5M1frAqMx9y7-42" value="" style="edgeStyle=elbowEdgeStyle;fontSize=13;html=1;endArrow=ERoneToMany;startArrow=ERzeroToOne;rounded=0;strokeWidth=2;entryX=0;entryY=0.5;entryDx=0;entryDy=0;fillColor=#1ba1e2;strokeColor=#006EAF;exitX=0;exitY=0.5;exitDx=0;exitDy=0;" parent="1" source="36T4z24LOP3LeD5Vtb74-152" target="wlwj411Kuk6rDO_IyDqp-68" edge="1">
                    <mxGeometry width="100" height="100" relative="1" as="geometry">
                        <mxPoint x="920" y="-295" as="sourcePoint"/>
                        <mxPoint x="789.97" y="-530" as="targetPoint"/>
                        <Array as="points">
                            <mxPoint x="790" y="-410"/>
                        </Array>
                    </mxGeometry>
                </mxCell>
                <mxCell id="q2yrCnXa5M1frAqMx9y7-43" value="" style="edgeStyle=orthogonalEdgeStyle;fontSize=13;html=1;endArrow=ERoneToMany;startArrow=ERzeroToOne;rounded=0;entryX=0;entryY=0.5;entryDx=0;entryDy=0;exitX=0;exitY=0.5;exitDx=0;exitDy=0;strokeWidth=2;fillColor=#e1d5e7;strokeColor=#9673a6;" parent="1" source="36T4z24LOP3LeD5Vtb74-139" target="wlwj411Kuk6rDO_IyDqp-61" edge="1">
                    <mxGeometry width="100" height="100" relative="1" as="geometry">
                        <mxPoint x="430" y="-360" as="sourcePoint"/>
                        <mxPoint x="390" y="-545" as="targetPoint"/>
                        <Array as="points">
                            <mxPoint x="450" y="-327"/>
                            <mxPoint x="450" y="-530"/>
                        </Array>
                    </mxGeometry>
                </mxCell>
                <mxCell id="RfrlllV6XKP_VL91qT2g-36" value="" style="fontSize=13;html=1;endArrow=ERoneToMany;startArrow=ERmandOne;rounded=0;fillColor=#f8cecc;strokeColor=#b85450;strokeWidth=2;edgeStyle=orthogonalEdgeStyle;elbow=vertical;entryX=0;entryY=0.5;entryDx=0;entryDy=0;startFill=0;exitX=0;exitY=0.5;exitDx=0;exitDy=0;" parent="1" source="cqkPvYUDdSKqJvLp3jxx-16" target="RfrlllV6XKP_VL91qT2g-17" edge="1">
                    <mxGeometry width="100" height="100" relative="1" as="geometry">
                        <mxPoint x="180" y="280" as="sourcePoint"/>
                        <mxPoint x="-30" y="85" as="targetPoint"/>
                        <Array as="points">
                            <mxPoint x="190" y="325"/>
                            <mxPoint x="190" y="320"/>
                            <mxPoint x="-40" y="320"/>
                            <mxPoint x="-40" y="75"/>
                        </Array>
                    </mxGeometry>
                </mxCell>
                <mxCell id="LZco95R0kcnfF2moG8rG-22" value="" style="fontSize=13;html=1;endArrow=ERmandOne;startArrow=ERmandOne;rounded=0;edgeStyle=orthogonalEdgeStyle;strokeWidth=2;fillColor=#60a917;strokeColor=#2D7600;entryX=-0.005;entryY=0.866;entryDx=0;entryDy=0;entryPerimeter=0;startFill=0;endFill=0;" parent="1" target="cqkPvYUDdSKqJvLp3jxx-16" edge="1">
                    <mxGeometry width="100" height="100" relative="1" as="geometry">
                        <mxPoint x="380" y="580" as="sourcePoint"/>
                        <mxPoint x="310" y="360" as="targetPoint"/>
                        <Array as="points">
                            <mxPoint x="280" y="580"/>
                            <mxPoint x="280" y="350"/>
                            <mxPoint x="319" y="350"/>
                        </Array>
                    </mxGeometry>
                </mxCell>
                <mxCell id="q2yrCnXa5M1frAqMx9y7-49" value="" style="edgeStyle=elbowEdgeStyle;fontSize=13;html=1;endArrow=ERoneToMany;startArrow=ERmandOne;rounded=0;entryX=1;entryY=0.5;entryDx=0;entryDy=0;strokeWidth=2;fillColor=#e6d0de;gradientColor=#d5739d;strokeColor=#996185;" parent="1" target="ndnISll9TycVntmwG7Ce-1" edge="1">
                    <mxGeometry width="100" height="100" relative="1" as="geometry">
                        <mxPoint x="320" y="310" as="sourcePoint"/>
                        <mxPoint x="127" y="538.5" as="targetPoint"/>
                    </mxGeometry>
                </mxCell>
                <mxCell id="RfrlllV6XKP_VL91qT2g-45" value="" style="edgeStyle=elbowEdgeStyle;fontSize=13;html=1;endArrow=ERoneToMany;endFill=0;startArrow=ERmandOne;rounded=0;entryX=0;entryY=0.5;entryDx=0;entryDy=0;exitX=0;exitY=0.5;exitDx=0;exitDy=0;strokeWidth=2;elbow=vertical;fillColor=#f8cecc;strokeColor=#001DBC;startFill=0;" parent="1" source="9tRWBcBBaT76NV6u4gut-7" target="RfrlllV6XKP_VL91qT2g-22" edge="1">
                    <mxGeometry width="100" height="100" relative="1" as="geometry">
                        <mxPoint x="30" y="1060" as="sourcePoint"/>
                        <mxPoint x="61.799999999999955" y="871.5100000000002" as="targetPoint"/>
                        <Array as="points">
                            <mxPoint x="140" y="940"/>
                        </Array>
                    </mxGeometry>
                </mxCell>
                <mxCell id="LZco95R0kcnfF2moG8rG-38" value="" style="edgeStyle=elbowEdgeStyle;fontSize=13;html=1;endArrow=ERoneToMany;startArrow=ERzeroToOne;rounded=0;strokeWidth=2;fillColor=#fad9d5;strokeColor=#ae4132;exitX=0.006;exitY=-0.1;exitDx=0;exitDy=0;entryX=1;entryY=-0.1;entryDx=0;entryDy=0;entryPerimeter=0;exitPerimeter=0;" parent="1" source="nFd2LTMDBVpqRNZDv_q9-5" target="36T4z24LOP3LeD5Vtb74-19" edge="1">
                    <mxGeometry width="100" height="100" relative="1" as="geometry">
                        <mxPoint x="360" y="555" as="sourcePoint"/>
                        <mxPoint x="50" y="630" as="targetPoint"/>
                        <Array as="points">
                            <mxPoint x="200" y="590"/>
                        </Array>
                    </mxGeometry>
                </mxCell>
                <mxCell id="q2yrCnXa5M1frAqMx9y7-57" value="" style="edgeStyle=orthogonalEdgeStyle;fontSize=13;html=1;endArrow=ERoneToMany;startArrow=ERzeroToOne;rounded=0;exitX=0;exitY=0.5;exitDx=0;exitDy=0;strokeWidth=2;entryX=0;entryY=0.5;entryDx=0;entryDy=0;fillColor=#1ba1e2;strokeColor=#006EAF;" parent="1" source="36T4z24LOP3LeD5Vtb74-152" target="wlwj411Kuk6rDO_IyDqp-75" edge="1">
                    <mxGeometry width="100" height="100" relative="1" as="geometry">
                        <mxPoint x="1170" y="-170" as="sourcePoint"/>
                        <mxPoint x="1440" y="-350" as="targetPoint"/>
                        <Array as="points">
                            <mxPoint x="880" y="-295"/>
                            <mxPoint x="880" y="-440"/>
                        </Array>
                    </mxGeometry>
                </mxCell>
                <mxCell id="wlwj411Kuk6rDO_IyDqp-98" value="" style="edgeStyle=orthogonalEdgeStyle;fontSize=13;html=1;endArrow=ERoneToMany;startArrow=ERmandOne;rounded=0;strokeWidth=2;entryX=0;entryY=0.5;entryDx=0;entryDy=0;fillColor=#fa6800;strokeColor=#C73500;exitX=1.01;exitY=0.111;exitDx=0;exitDy=0;exitPerimeter=0;" parent="1" source="cqkPvYUDdSKqJvLp3jxx-16" target="q2yrCnXa5M1frAqMx9y7-29" edge="1">
                    <mxGeometry width="100" height="100" relative="1" as="geometry">
                        <mxPoint x="600" y="300" as="sourcePoint"/>
                        <mxPoint x="830" y="-170" as="targetPoint"/>
                        <Array as="points">
                            <mxPoint x="700" y="298"/>
                            <mxPoint x="700" y="-265"/>
                        </Array>
                    </mxGeometry>
                </mxCell>
                <mxCell id="wlwj411Kuk6rDO_IyDqp-105" value="" style="edgeStyle=orthogonalEdgeStyle;fontSize=13;html=1;endArrow=ERoneToMany;startArrow=ERmandOne;rounded=0;strokeWidth=2;fillColor=#d5e8d4;gradientColor=#97d077;strokeColor=#82b366;entryX=1;entryY=0.5;entryDx=0;entryDy=0;exitX=-0.004;exitY=0.742;exitDx=0;exitDy=0;exitPerimeter=0;" parent="1" source="36T4z24LOP3LeD5Vtb74-139" target="wlwj411Kuk6rDO_IyDqp-102" edge="1">
                    <mxGeometry width="100" height="100" relative="1" as="geometry">
                        <mxPoint x="470" y="-300" as="sourcePoint"/>
                        <mxPoint x="410" y="-270" as="targetPoint"/>
                    </mxGeometry>
                </mxCell>
                <mxCell id="wlwj411Kuk6rDO_IyDqp-106" value="" style="edgeStyle=elbowEdgeStyle;fontSize=13;html=1;endArrow=ERoneToMany;startArrow=ERmandOne;rounded=0;exitX=1;exitY=0.5;exitDx=0;exitDy=0;entryX=0;entryY=0.5;entryDx=0;entryDy=0;strokeWidth=2;fillColor=#ffcccc;strokeColor=#999900;" parent="1" source="nFd2LTMDBVpqRNZDv_q9-54" target="q2yrCnXa5M1frAqMx9y7-25" edge="1">
                    <mxGeometry width="100" height="100" relative="1" as="geometry">
                        <mxPoint x="-360" y="-280" as="sourcePoint"/>
                        <mxPoint x="-30" y="-300" as="targetPoint"/>
                        <Array as="points">
                            <mxPoint x="-200" y="-300"/>
                        </Array>
                    </mxGeometry>
                </mxCell>
                <mxCell id="LZco95R0kcnfF2moG8rG-46" value="" style="edgeStyle=entityRelationEdgeStyle;fontSize=13;html=1;endArrow=ERoneToMany;startArrow=ERmandOne;rounded=0;entryX=1;entryY=0.5;entryDx=0;entryDy=0;exitX=-0.001;exitY=0.194;exitDx=0;exitDy=0;exitPerimeter=0;fillColor=#fff2cc;strokeColor=#d6b656;strokeWidth=2;startFill=0;" parent="1" source="36T4z24LOP3LeD5Vtb74-16" target="q2yrCnXa5M1frAqMx9y7-19" edge="1">
                    <mxGeometry width="100" height="100" relative="1" as="geometry">
                        <mxPoint x="-250" y="540" as="sourcePoint"/>
                        <mxPoint x="-150" y="440" as="targetPoint"/>
                    </mxGeometry>
                </mxCell>
                <mxCell id="LZco95R0kcnfF2moG8rG-47" value="" style="edgeStyle=orthogonalEdgeStyle;fontSize=13;html=1;endArrow=ERoneToMany;startArrow=ERmandOne;rounded=0;entryX=0;entryY=0.5;entryDx=0;entryDy=0;fillColor=#dae8fc;strokeColor=#6c8ebf;strokeWidth=2;startFill=0;" parent="1" source="8CGQNzVvqwp2ry-6FXMm-37" target="q2yrCnXa5M1frAqMx9y7-16" edge="1">
                    <mxGeometry width="100" height="100" relative="1" as="geometry">
                        <mxPoint x="-210" y="-250" as="sourcePoint"/>
                        <mxPoint x="-594.23" y="550.3" as="targetPoint"/>
                        <Array as="points">
                            <mxPoint x="-660" y="-367"/>
                            <mxPoint x="-660" y="555"/>
                        </Array>
                    </mxGeometry>
                </mxCell>
                <mxCell id="VelHP3QJOJPNHOSKld1y-2" value="" style="edgeStyle=orthogonalEdgeStyle;fontSize=13;html=1;endArrow=ERoneToMany;startArrow=ERmandOne;rounded=0;entryX=0;entryY=0.5;entryDx=0;entryDy=0;exitX=1;exitY=0.5;exitDx=0;exitDy=0;strokeWidth=2;fillColor=#d80073;strokeColor=#A50040;" parent="1" source="36T4z24LOP3LeD5Vtb74-16" target="RfrlllV6XKP_VL91qT2g-25" edge="1">
                    <mxGeometry width="100" height="100" relative="1" as="geometry">
                        <mxPoint x="50" y="620" as="sourcePoint"/>
                        <mxPoint x="40" y="880" as="targetPoint"/>
                    </mxGeometry>
                </mxCell>
                <mxCell id="iJWKMotrQo5QRT_qyEF7-11" value="" style="edgeStyle=elbowEdgeStyle;fontSize=13;html=1;endArrow=ERoneToMany;startArrow=ERzeroToOne;rounded=0;strokeWidth=2;fillColor=#f8cecc;strokeColor=#0000FF;entryX=0;entryY=0.5;entryDx=0;entryDy=0;exitX=-0.005;exitY=0.819;exitDx=0;exitDy=0;exitPerimeter=0;startFill=0;" parent="1" source="8CGQNzVvqwp2ry-6FXMm-37" target="wlwj411Kuk6rDO_IyDqp-93" edge="1">
                    <mxGeometry width="100" height="100" relative="1" as="geometry">
                        <mxPoint x="-230" y="-40" as="sourcePoint"/>
                        <mxPoint x="-130" y="145" as="targetPoint"/>
                        <Array as="points">
                            <mxPoint x="-120" y="70"/>
                        </Array>
                    </mxGeometry>
                </mxCell>
                <mxCell id="c47r_SO1Ddxv8SmuZw1m-1" value="" style="edgeStyle=elbowEdgeStyle;fontSize=13;html=1;endArrow=ERoneToMany;startArrow=ERzeroToOne;rounded=0;entryX=0;entryY=0.5;entryDx=0;entryDy=0;strokeWidth=2;fillColor=#a20025;strokeColor=#6F0000;" parent="1" target="36T4z24LOP3LeD5Vtb74-164" edge="1">
                    <mxGeometry width="100" height="100" relative="1" as="geometry">
                        <mxPoint x="319" y="300" as="sourcePoint"/>
                        <mxPoint x="590" y="-190" as="targetPoint"/>
                        <Array as="points">
                            <mxPoint x="290" y="20"/>
                        </Array>
                    </mxGeometry>
                </mxCell>
                <mxCell id="TziOj_4ZsJbTpoA70mmC-2" value="" style="edgeStyle=elbowEdgeStyle;fontSize=13;html=1;endArrow=ERoneToMany;startArrow=ERzeroToOne;rounded=0;strokeWidth=2;fillColor=#fad9d5;strokeColor=#7EA6E0;entryX=1;entryY=0.5;entryDx=0;entryDy=0;exitX=-0.004;exitY=0.702;exitDx=0;exitDy=0;exitPerimeter=0;" parent="1" source="cqkPvYUDdSKqJvLp3jxx-16" target="36T4z24LOP3LeD5Vtb74-19" edge="1">
                    <mxGeometry width="100" height="100" relative="1" as="geometry">
                        <mxPoint x="350" y="440" as="sourcePoint"/>
                        <mxPoint x="60" y="667" as="targetPoint"/>
                        <Array as="points">
                            <mxPoint x="210" y="600"/>
                        </Array>
                    </mxGeometry>
                </mxCell>
            </root>
        </mxGraphModel>
    </diagram>
</mxfile>